<svg width="48.000000" height="48.000053" viewBox="0 0 48 48.0001" fill="none" xmlns="http://www.w3.org/2000/svg" xmlns:xlink="http://www.w3.org/1999/xlink">
	<desc>
			Created with Pixso.
	</desc>
	<defs>
		<clipPath id="clip248_15586">
			<rect id="setting_设置" width="48.000000" height="48.000053" fill="white" fill-opacity="0"/>
		</clipPath>
	</defs>
	<g clip-path="url(#clip248_15586)">
		<path id="矢量 41" d="M10 8L17.17 8L22.58 2.58C22.97 2.19 23.44 2 24 2C24.55 2 25.02 2.19 25.41 2.58L30.82 8L38 8C38.55 8 39.02 8.19 39.41 8.58C39.8 8.97 40 9.44 40 10L40 17.17L45.41 22.58C45.8 22.97 46 23.44 46 24C46 24.55 45.8 25.02 45.41 25.41L40 30.82L40 38C40 38.55 39.8 39.02 39.41 39.41C39.02 39.8 38.55 40 38 40L30.82 40L25.41 45.41C25.02 45.8 24.55 46 24 46C23.44 46 22.97 45.8 22.58 45.41L17.17 40L10 40C9.44 40 8.97 39.8 8.58 39.41C8.19 39.02 8 38.55 8 38L8 30.82L2.58 25.41C2.19 25.02 2 24.55 2 24C2 23.44 2.19 22.97 2.58 22.58L8 17.17L8 10C8 9.44 8.19 8.97 8.58 8.58C8.97 8.19 9.44 8 10 8ZM18 12L12 12L12 18C12 18.26 11.94 18.52 11.84 18.76C11.74 19.01 11.6 19.22 11.41 19.41L6.82 24L11.41 28.58C11.6 28.77 11.74 28.98 11.84 29.23C11.94 29.47 12 29.73 12 30L12 36L18 36C18.26 36 18.52 36.05 18.76 36.15C19.01 36.25 19.22 36.39 19.41 36.58L24 41.17L28.58 36.58C28.77 36.39 28.98 36.25 29.23 36.15C29.47 36.05 29.73 36 30 36L36 36L36 30C36 29.73 36.05 29.47 36.15 29.23C36.25 28.98 36.39 28.77 36.58 28.58L41.17 24L36.58 19.41C36.39 19.22 36.25 19.01 36.15 18.76C36.05 18.52 36 18.26 36 18L36 12L30 12C29.73 12 29.47 11.94 29.23 11.84C28.98 11.74 28.77 11.6 28.58 11.41L24 6.82L19.41 11.41C19.22 11.6 19.01 11.74 18.76 11.84C18.52 11.94 18.26 12 18 12ZM32 24C32 25.08 31.79 26.12 31.37 27.11C30.96 28.07 30.39 28.91 29.65 29.65C28.91 30.39 28.07 30.96 27.11 31.37C26.12 31.79 25.08 32 24 32C22.91 32 21.87 31.79 20.88 31.37C19.92 30.96 19.08 30.39 18.34 29.65C17.6 28.91 17.03 28.07 16.62 27.11C16.21 26.12 16 25.08 16 24C16 22.91 16.21 21.87 16.62 20.88C17.03 19.92 17.6 19.08 18.34 18.34C19.08 17.6 19.92 17.03 20.88 16.62C21.87 16.2 22.91 15.99 24 15.99Q24.88 15.99 25.72 16.18Q26.43 16.34 27.11 16.62C28.07 17.03 28.91 17.6 29.65 18.34C30.39 19.08 30.96 19.92 31.37 20.88C31.79 21.87 32 22.91 32 24ZM28 24C28 23.45 27.89 22.93 27.68 22.44C27.48 21.96 27.19 21.54 26.82 21.17C26.45 20.8 26.03 20.51 25.55 20.31C25.06 20.1 24.54 20 24 20C23.45 20 22.93 20.1 22.44 20.31C21.96 20.51 21.54 20.8 21.17 21.17C20.8 21.54 20.51 21.96 20.31 22.44C20.1 22.93 20 23.45 20 24C20 24.54 20.1 25.06 20.31 25.55C20.51 26.03 20.8 26.45 21.17 26.82C21.54 27.19 21.96 27.48 22.44 27.68C22.93 27.89 23.45 27.99 24 27.99C24.54 27.99 25.06 27.89 25.55 27.68C26.03 27.48 26.45 27.19 26.82 26.82C27.19 26.45 27.48 26.03 27.68 25.55C27.89 25.06 28 24.54 28 24Z" fill="#595959" fill-opacity="1.000000" fill-rule="evenodd"/>
		<path id="矢量 41" d="M8.58 8.58C8.97 8.19 9.44 8 10 8L17.17 8L22.58 2.58C22.97 2.19 23.44 2 24 2C24.55 2 25.02 2.19 25.41 2.58L30.82 8L38 8C38.55 8 39.02 8.19 39.41 8.58C39.8 8.97 40 9.44 40 10L40 17.17L45.41 22.58C45.8 22.97 46 23.44 46 24C46 24.55 45.8 25.02 45.41 25.41L40 30.82L40 38C40 38.55 39.8 39.02 39.41 39.41C39.02 39.8 38.55 40 38 40L30.82 40L25.41 45.41C25.02 45.8 24.55 46 24 46C23.44 46 22.97 45.8 22.58 45.41L17.17 40L10 40C9.44 40 8.97 39.8 8.58 39.41C8.19 39.02 8 38.55 8 38L8 30.82L2.58 25.41C2.19 25.02 2 24.55 2 24C2 23.44 2.19 22.97 2.58 22.58L8 17.17L8 10C8 9.44 8.19 8.97 8.58 8.58L8.58 8.58M9.29 9.29C9.48 9.09 9.72 9 10 9L17.58 9L23.29 3.29C23.48 3.09 23.72 3 24 3C24.27 3 24.51 3.09 24.7 3.29L30.41 9L38 9C38.27 9 38.51 9.09 38.7 9.29C38.9 9.48 38.99 9.72 38.99 10L38.99 17.58L44.7 23.29C44.9 23.48 44.99 23.72 44.99 24C44.99 24.27 44.9 24.51 44.7 24.7L38.99 30.41L38.99 38C38.99 38.27 38.9 38.51 38.7 38.7C38.51 38.9 38.27 38.99 38 38.99L30.41 38.99L24.7 44.7C24.51 44.9 24.27 44.99 24 44.99C23.72 44.99 23.48 44.9 23.29 44.7L17.58 38.99L10 38.99C9.72 38.99 9.48 38.9 9.29 38.7C9.09 38.51 9 38.27 9 38L9 30.41L3.29 24.7C3.09 24.51 3 24.27 3 24C3 23.72 3.09 23.48 3.29 23.29L9 17.58L9 10C9 9.72 9.09 9.48 9.29 9.29M18.38 10.92C18.26 10.97 18.13 10.99 18 10.99L10.99 10.99L10.99 18C10.99 18.13 10.97 18.25 10.92 18.38C10.87 18.5 10.8 18.61 10.7 18.7L5.41 24L10.7 29.29C10.8 29.38 10.87 29.49 10.92 29.61C10.97 29.74 10.99 29.86 10.99 30L10.99 37L18 37C18.13 37 18.26 37.02 18.38 37.07C18.5 37.12 18.61 37.19 18.7 37.29L24 42.58L29.29 37.29C29.38 37.19 29.49 37.12 29.61 37.07C29.74 37.02 29.86 37 30 37L37 37L37 30C37 29.86 37.02 29.73 37.07 29.61C37.12 29.49 37.19 29.38 37.29 29.29L42.58 24L37.29 18.7C37.19 18.61 37.12 18.5 37.07 18.38C37.02 18.26 37 18.13 37 18L37 10.99L30 10.99C29.86 10.99 29.74 10.97 29.61 10.92C29.49 10.87 29.38 10.8 29.29 10.7L24 5.41L18.7 10.7C18.61 10.8 18.5 10.87 18.38 10.92M18.76 11.84C18.52 11.94 18.26 12 18 12L12 12L12 18C12 18.26 11.94 18.52 11.84 18.76C11.74 19.01 11.6 19.22 11.41 19.41L6.82 24L11.41 28.58C11.6 28.77 11.74 28.98 11.84 29.23C11.94 29.47 12 29.73 12 30L12 36L18 36C18.26 36 18.52 36.05 18.76 36.15C19.01 36.25 19.22 36.39 19.41 36.58L24 41.17L28.58 36.58C28.77 36.39 28.98 36.25 29.23 36.15C29.47 36.05 29.73 36 30 36L36 36L36 30C36 29.73 36.05 29.47 36.15 29.23C36.25 28.98 36.39 28.77 36.58 28.58L41.17 24L36.58 19.41C36.39 19.22 36.25 19.01 36.15 18.76C36.05 18.52 36 18.26 36 18L36 12L30 12C29.73 12 29.47 11.94 29.23 11.84C28.98 11.74 28.77 11.6 28.58 11.41L24 6.82L19.41 11.41C19.22 11.6 19.01 11.74 18.76 11.84L18.76 11.84M32 24C32 25.08 31.79 26.12 31.37 27.11C30.96 28.07 30.39 28.91 29.65 29.65C28.91 30.39 28.07 30.96 27.11 31.37C26.12 31.79 25.08 32 24 32C22.91 32 21.87 31.79 20.88 31.37C19.92 30.96 19.08 30.39 18.34 29.65C17.6 28.91 17.03 28.07 16.62 27.11C16.21 26.12 16 25.08 16 24C16 22.91 16.21 21.87 16.62 20.88C17.03 19.92 17.6 19.08 18.34 18.34C19.08 17.6 19.92 17.03 20.88 16.62C21.87 16.2 22.91 15.99 24 15.99C25.08 15.99 26.12 16.2 27.11 16.62C28.07 17.03 28.91 17.6 29.65 18.34C30.39 19.08 30.96 19.92 31.37 20.88C31.79 21.87 32 22.91 32 24L32 24M30.44 21.27C30.81 22.14 31 23.05 31 24C31 24.94 30.81 25.85 30.44 26.72C30.09 27.56 29.59 28.3 28.94 28.94C28.3 29.59 27.56 30.09 26.72 30.44C25.85 30.81 24.94 30.99 24 30.99C23.05 30.99 22.14 30.81 21.27 30.44C20.43 30.09 19.69 29.59 19.05 28.94C18.4 28.3 17.9 27.56 17.55 26.72C17.18 25.85 17 24.94 17 24C17 23.05 17.18 22.14 17.55 21.27C17.9 20.43 18.4 19.69 19.05 19.05C19.69 18.4 20.43 17.9 21.27 17.55C22.14 17.18 23.05 17 24 17C24.94 17 25.85 17.18 26.72 17.55C27.56 17.9 28.3 18.4 28.94 19.05C29.59 19.69 30.09 20.43 30.44 21.27M28.6 25.94C28.86 25.32 29 24.67 29 24C29 23.32 28.86 22.67 28.6 22.05C28.35 21.45 27.99 20.92 27.53 20.46C27.07 20 26.54 19.64 25.94 19.39C25.32 19.13 24.67 18.99 24 18.99C23.32 18.99 22.67 19.13 22.05 19.39C21.45 19.64 20.92 20 20.46 20.46C20 20.92 19.64 21.45 19.39 22.05C19.13 22.67 19 23.32 19 24C19 24.67 19.13 25.32 19.39 25.94C19.64 26.54 20 27.07 20.46 27.53C20.92 27.99 21.45 28.35 22.05 28.6C22.67 28.86 23.32 29 24 29C24.67 29 25.32 28.86 25.94 28.6C26.54 28.35 27.07 27.99 27.53 27.53C27.99 27.07 28.35 26.54 28.6 25.94M28 24C28 23.45 27.89 22.93 27.68 22.44C27.48 21.96 27.19 21.54 26.82 21.17C26.45 20.8 26.03 20.51 25.55 20.31C25.06 20.1 24.54 20 24 20C23.45 20 22.93 20.1 22.44 20.31C21.96 20.51 21.54 20.8 21.17 21.17C20.8 21.54 20.51 21.96 20.31 22.44C20.1 22.93 20 23.45 20 24C20 24.54 20.1 25.06 20.31 25.55C20.51 26.03 20.8 26.45 21.17 26.82C21.54 27.19 21.96 27.48 22.44 27.68C22.93 27.89 23.45 27.99 24 27.99C24.54 27.99 25.06 27.89 25.55 27.68C26.03 27.48 26.45 27.19 26.82 26.82C27.19 26.45 27.48 26.03 27.68 25.55C27.89 25.06 28 24.54 28 24L28 24Z" fill="#595959" fill-opacity="1.000000" fill-rule="evenodd"/>
	</g>
</svg>
