<svg width="48.000000" height="48.000000" viewBox="0 0 48 48" fill="none" xmlns="http://www.w3.org/2000/svg" xmlns:xlink="http://www.w3.org/1999/xlink">
	<desc>
			Created with Pixso.
	</desc>
	<defs>
		<clipPath id="clip248_15809">
			<rect id="preview-open_预览打开" width="47.999992" height="48.000000" fill="white" fill-opacity="0"/>
		</clipPath>
	</defs>
	<g clip-path="url(#clip248_15809)">
		<path id="矢量 56 (边框)" d="M44.35 24L43.69 22.94C40.87 18.38 37.85 14.94 34.64 12.62C31.29 10.2 27.74 9 23.99 9C20.25 9 16.7 10.2 13.35 12.62C10.14 14.94 7.12 18.38 4.29 22.94L3.64 24L4.29 25.05C7.12 29.61 10.14 33.05 13.35 35.37C16.7 37.79 20.25 39 23.99 39C27.74 39 31.29 37.79 34.64 35.37C37.85 33.05 40.87 29.61 43.69 25.05L44.35 24M39.62 24C34.83 16.66 29.62 13 23.99 13C18.37 13 13.16 16.66 8.37 24C13.16 31.33 18.37 35 23.99 35C29.62 35 34.83 31.33 39.62 24L39.62 24M28.94 28.94L28.94 28.94C29.6 28.29 30.11 27.53 30.46 26.67C30.82 25.82 31 24.92 31 23.99C31 23.07 30.82 22.17 30.46 21.32C30.11 20.46 29.6 19.7 28.94 19.05C28.29 18.39 27.53 17.88 26.67 17.53C25.82 17.17 24.92 17 23.99 17C23.07 17 22.17 17.17 21.32 17.53C20.46 17.88 19.7 18.39 19.04 19.05C18.39 19.7 17.88 20.46 17.53 21.32C17.17 22.17 16.99 23.07 16.99 23.99C16.99 24.92 17.17 25.82 17.53 26.67C17.88 27.53 18.39 28.29 19.04 28.94C19.7 29.6 20.46 30.11 21.32 30.46C22.17 30.82 23.07 30.99 23.99 30.99C24.92 30.99 25.82 30.82 26.67 30.46C27.53 30.11 28.29 29.6 28.94 28.94L28.94 28.94M26.77 25.14C26.61 25.51 26.4 25.83 26.12 26.12L26.12 26.12C25.83 26.4 25.51 26.61 25.14 26.77C24.78 26.92 24.39 26.99 23.99 26.99C23.6 26.99 23.21 26.92 22.85 26.77C22.48 26.61 22.15 26.4 21.87 26.12C21.59 25.84 21.38 25.51 21.22 25.14C21.07 24.78 20.99 24.39 20.99 23.99C20.99 23.6 21.07 23.21 21.22 22.85C21.38 22.48 21.59 22.15 21.87 21.87C22.15 21.59 22.48 21.38 22.85 21.22C23.21 21.07 23.6 21 23.99 21C24.39 21 24.78 21.07 25.14 21.22C25.51 21.38 25.83 21.59 26.12 21.87C26.4 22.16 26.61 22.48 26.77 22.85C26.92 23.21 26.99 23.6 26.99 23.99C26.99 24.39 26.92 24.78 26.77 25.14L26.77 25.14Z" fill="#595959" fill-opacity="1.000000" fill-rule="evenodd"/>
		<path id="矢量 56 (边框)" d="M44.35 24L43.69 22.94C40.87 18.38 37.85 14.94 34.64 12.62C31.29 10.2 27.74 9 23.99 9C20.25 9 16.7 10.2 13.35 12.62C10.14 14.94 7.12 18.38 4.29 22.94L3.64 24L4.29 25.05C7.12 29.61 10.14 33.05 13.35 35.37C16.7 37.79 20.25 39 23.99 39C27.74 39 31.29 37.79 34.64 35.37C37.85 33.05 40.87 29.61 43.69 25.05L44.35 24M34.05 13.43C37.16 15.68 40.09 19.02 42.84 23.47L43.17 24L42.84 24.52C40.09 28.97 37.16 32.31 34.05 34.56C30.88 36.85 27.52 37.99 23.99 37.99C20.47 37.99 17.11 36.85 13.94 34.56C10.83 32.31 7.9 28.97 5.15 24.52L4.82 24L5.15 23.47C7.9 19.02 10.83 15.68 13.94 13.43C17.11 11.14 20.47 10 23.99 10C27.52 10 30.88 11.14 34.05 13.43M40.46 23.45C35.47 15.81 29.98 11.99 23.99 11.99C18.01 11.99 12.52 15.81 7.53 23.45L7.17 24L7.53 24.54C12.52 32.18 18.01 36 23.99 36C29.98 36 35.47 32.18 40.46 24.54L40.82 24L40.46 23.45M39.62 24C34.83 16.66 29.62 13 23.99 13C18.37 13 13.16 16.66 8.37 24C13.16 31.33 18.37 35 23.99 35C29.62 35 34.83 31.33 39.62 24M28.94 28.94L28.94 28.94C29.6 28.29 30.11 27.53 30.46 26.67C30.82 25.82 31 24.92 31 23.99C31 23.07 30.82 22.17 30.46 21.32C30.11 20.46 29.6 19.7 28.94 19.05C28.29 18.39 27.53 17.88 26.67 17.53C25.82 17.17 24.92 17 23.99 17C23.07 17 22.17 17.17 21.32 17.53C20.46 17.88 19.7 18.39 19.04 19.05C18.39 19.7 17.88 20.46 17.53 21.32C17.17 22.17 16.99 23.07 16.99 23.99C16.99 24.92 17.17 25.82 17.53 26.67C17.88 27.53 18.39 28.29 19.04 28.94C19.7 29.6 20.46 30.11 21.32 30.46C22.17 30.82 23.07 30.99 23.99 30.99C24.92 30.99 25.82 30.82 26.67 30.46C27.53 30.11 28.29 29.6 28.94 28.94L28.94 28.94M29.54 26.29C29.23 27.02 28.8 27.67 28.24 28.23L28.24 28.24L28.24 28.24C27.67 28.8 27.03 29.23 26.29 29.54C25.56 29.84 24.79 29.99 23.99 29.99C23.2 29.99 22.43 29.84 21.7 29.54C20.96 29.23 20.31 28.8 19.75 28.24C19.19 27.67 18.76 27.03 18.45 26.29C18.15 25.56 18 24.79 18 23.99C18 23.2 18.15 22.43 18.45 21.7C18.76 20.96 19.19 20.32 19.75 19.75C20.31 19.19 20.96 18.76 21.7 18.45C22.43 18.15 23.2 18 23.99 18C24.79 18 25.56 18.15 26.29 18.45C27.03 18.76 27.67 19.19 28.24 19.75C28.8 20.32 29.23 20.96 29.54 21.7C29.84 22.43 29.99 23.2 29.99 23.99C29.99 24.79 29.84 25.56 29.54 26.29M26.83 26.82L26.83 26.82C27.2 26.45 27.49 26.01 27.69 25.53C27.89 25.04 28 24.53 28 23.99C28 23.46 27.89 22.95 27.69 22.46C27.49 21.97 27.2 21.54 26.82 21.17C26.45 20.79 26.02 20.5 25.53 20.3C25.04 20.1 24.53 19.99 23.99 19.99C23.46 19.99 22.95 20.1 22.46 20.3C21.97 20.5 21.54 20.79 21.17 21.17C20.79 21.54 20.5 21.97 20.3 22.46C20.1 22.95 19.99 23.46 19.99 23.99C19.99 24.53 20.1 25.04 20.3 25.53C20.5 26.02 20.79 26.45 21.17 26.82C21.54 27.2 21.97 27.49 22.46 27.69C22.95 27.89 23.46 28 23.99 28C24.53 28 25.04 27.89 25.53 27.69C26.01 27.49 26.45 27.2 26.82 26.82L26.83 26.82M26.77 25.14C26.61 25.51 26.4 25.83 26.12 26.12L26.12 26.12C25.83 26.4 25.51 26.61 25.14 26.77C24.78 26.92 24.39 26.99 23.99 26.99C23.6 26.99 23.21 26.92 22.85 26.77C22.48 26.61 22.15 26.4 21.87 26.12C21.59 25.84 21.38 25.51 21.22 25.14C21.07 24.78 20.99 24.39 20.99 23.99C20.99 23.6 21.07 23.21 21.22 22.85C21.38 22.48 21.59 22.15 21.87 21.87C22.15 21.59 22.48 21.38 22.85 21.22C23.21 21.07 23.6 21 23.99 21C24.39 21 24.78 21.07 25.14 21.22C25.51 21.38 25.83 21.59 26.12 21.87C26.4 22.16 26.61 22.48 26.77 22.85C26.92 23.21 26.99 23.6 26.99 23.99C26.99 24.39 26.92 24.78 26.77 25.14L26.77 25.14Z" fill="#595959" fill-opacity="1.000000" fill-rule="evenodd"/>
	</g>
</svg>
