<svg width="48.000000" height="48.000053" viewBox="0 0 48 48.0001" fill="none" xmlns="http://www.w3.org/2000/svg" xmlns:xlink="http://www.w3.org/1999/xlink">
	<desc>
			Created with Pixso.
	</desc>
	<defs>
		<clipPath id="clip248_15627">
			<rect id="add-user_添加用户" width="48.000000" height="48.000053" fill="white" fill-opacity="0"/>
		</clipPath>
	</defs>
	<g clip-path="url(#clip248_15627)">
		<path id="矢量 47" d="M27.29 16.5C27.76 15.38 28 14.21 28 13C28 11.78 27.76 10.61 27.29 9.49C26.83 8.41 26.19 7.46 25.36 6.63C24.53 5.8 23.58 5.16 22.5 4.7C21.38 4.23 20.21 4 19 4C17.78 4 16.61 4.23 15.49 4.7C14.41 5.16 13.46 5.8 12.63 6.63C11.8 7.46 11.16 8.41 10.7 9.49C10.23 10.61 10 11.78 10 13C10 14.21 10.23 15.38 10.7 16.5C11.16 17.58 11.8 18.53 12.63 19.36C13.46 20.19 14.41 20.83 15.49 21.29C16.61 21.76 17.78 22 19 22C20.21 22 21.38 21.76 22.5 21.29C23.58 20.83 24.53 20.19 25.36 19.36C26.19 18.53 26.83 17.58 27.29 16.5ZM23.6 11.05C23.86 11.67 24 12.32 24 13Q24 13.58 23.86 14.14Q23.77 14.55 23.6 14.94C23.35 15.54 22.99 16.07 22.53 16.53C22.07 16.99 21.54 17.35 20.94 17.6C20.32 17.86 19.67 18 19 18C18.32 18 17.67 17.86 17.05 17.6C16.45 17.35 15.92 16.99 15.46 16.53C15 16.07 14.64 15.54 14.39 14.94C14.13 14.32 14 13.67 14 13C14 12.32 14.13 11.67 14.39 11.05C14.64 10.45 15 9.92 15.46 9.46C15.92 9 16.45 8.64 17.05 8.39C17.67 8.13 18.32 8 19 8C19.67 8 20.32 8.13 20.94 8.39C21.54 8.64 22.07 9 22.53 9.46C22.99 9.92 23.35 10.45 23.6 11.05ZM18.79 30L29 30L29 26L18.79 26C17.38 26 16.39 26 15.8 26.01C14.83 26.02 14.02 26.06 13.38 26.11C12.6 26.17 11.91 26.28 11.31 26.42C10.64 26.58 10.02 26.8 9.46 27.08C8.51 27.56 7.67 28.18 6.92 28.92C6.18 29.67 5.56 30.51 5.09 31.46C4.8 32.02 4.58 32.64 4.42 33.31C4.28 33.91 4.17 34.6 4.11 35.38C4.06 36.02 4.02 36.83 4.01 37.8C4 38.39 4 39.38 4 40.8L4 41.99C4 42.55 4.19 43.02 4.58 43.41C4.97 43.8 5.44 44 6 44L29 44L29 40L8 40C8 39.02 8 38.31 8.01 37.86C8.02 36.98 8.05 36.26 8.1 35.7C8.15 35.12 8.22 34.63 8.31 34.23C8.4 33.87 8.51 33.55 8.65 33.27C8.94 32.71 9.3 32.2 9.75 31.75C10.2 31.3 10.71 30.94 11.27 30.65C11.55 30.51 11.87 30.4 12.23 30.31C12.63 30.22 13.12 30.15 13.7 30.1C14.26 30.05 14.98 30.02 15.86 30.01C16.43 30 17.41 30 18.79 30ZM34 27L34 33L28 33L28 37L34 37L34 43L38 43L38 37L44 37L44 33L38 33L38 27L34 27Z" fill="#595959" fill-opacity="1.000000" fill-rule="evenodd"/>
		<path id="矢量 47" d="M27.29 16.5C27.76 15.38 28 14.21 28 13C28 11.78 27.76 10.61 27.29 9.49C26.83 8.41 26.19 7.46 25.36 6.63C24.53 5.8 23.58 5.16 22.5 4.7C21.38 4.23 20.21 4 19 4C17.78 4 16.61 4.23 15.49 4.7C14.41 5.16 13.46 5.8 12.63 6.63C11.8 7.46 11.16 8.41 10.7 9.49C10.23 10.61 10 11.78 10 13C10 14.21 10.23 15.38 10.7 16.5C11.16 17.58 11.8 18.53 12.63 19.36C13.46 20.19 14.41 20.83 15.49 21.29C16.61 21.76 17.78 22 19 22C20.21 22 21.38 21.76 22.5 21.29C23.58 20.83 24.53 20.19 25.36 19.36C26.19 18.53 26.83 17.58 27.29 16.5L27.29 16.5M26.37 9.88C26.78 10.87 26.99 11.91 26.99 13C26.99 14.08 26.78 15.12 26.37 16.11C25.96 17.07 25.39 17.91 24.65 18.65C23.91 19.39 23.07 19.96 22.11 20.37C21.12 20.78 20.08 20.99 19 20.99C17.91 20.99 16.87 20.78 15.88 20.37C14.92 19.96 14.08 19.39 13.34 18.65C12.6 17.91 12.03 17.07 11.62 16.11C11.21 15.12 11 14.08 11 13C11 11.91 11.21 10.87 11.62 9.88C12.03 8.92 12.6 8.08 13.34 7.34C14.08 6.6 14.92 6.03 15.88 5.62C16.87 5.21 17.91 5 19 5C20.08 5 21.12 5.21 22.11 5.62C23.07 6.03 23.91 6.6 24.65 7.34C25.39 8.08 25.96 8.92 26.37 9.88M24.52 15.33C24.84 14.59 25 13.81 25 13C25 12.18 24.84 11.4 24.52 10.66C24.22 9.94 23.79 9.31 23.24 8.75C22.68 8.2 22.05 7.77 21.33 7.47C20.59 7.15 19.81 6.99 19 6.99C18.18 6.99 17.4 7.15 16.66 7.47C15.94 7.77 15.31 8.2 14.75 8.75C14.2 9.31 13.77 9.94 13.47 10.66C13.15 11.4 12.99 12.18 12.99 13C12.99 13.81 13.15 14.59 13.47 15.33C13.77 16.05 14.2 16.68 14.75 17.24C15.31 17.79 15.94 18.22 16.66 18.52C17.4 18.84 18.18 19 19 19C19.81 19 20.59 18.84 21.33 18.52C22.05 18.22 22.68 17.79 23.24 17.24C23.79 16.68 24.22 16.05 24.52 15.33M23.6 11.05C23.86 11.67 24 12.32 24 13C24 13.67 23.86 14.32 23.6 14.94C23.35 15.54 22.99 16.07 22.53 16.53C22.07 16.99 21.54 17.35 20.94 17.6C20.32 17.86 19.67 18 19 18C18.32 18 17.67 17.86 17.05 17.6C16.45 17.35 15.92 16.99 15.46 16.53C15 16.07 14.64 15.54 14.39 14.94C14.13 14.32 14 13.67 14 13C14 12.32 14.13 11.67 14.39 11.05C14.64 10.45 15 9.92 15.46 9.46C15.92 9 16.45 8.64 17.05 8.39C17.67 8.13 18.32 8 19 8C19.67 8 20.32 8.13 20.94 8.39C21.54 8.64 22.07 9 22.53 9.46C22.99 9.92 23.35 10.45 23.6 11.05L23.6 11.05M15.86 30.01C16.43 30 17.41 30 18.79 30L29 30L29 26L18.79 26C17.38 26 16.39 26 15.8 26.01C14.83 26.02 14.02 26.06 13.38 26.11C12.6 26.17 11.91 26.28 11.31 26.42C10.64 26.58 10.02 26.8 9.46 27.08C8.51 27.56 7.67 28.18 6.92 28.92C6.18 29.67 5.56 30.51 5.09 31.46C4.8 32.02 4.58 32.64 4.42 33.31C4.28 33.91 4.17 34.6 4.11 35.38C4.06 36.02 4.02 36.83 4.01 37.8C4 38.39 4 39.38 4 40.8L4 41.99C4 42.55 4.19 43.02 4.58 43.41C4.97 43.8 5.44 44 6 44L29 44L29 40L8 40C8 39.02 8 38.31 8.01 37.86C8.02 36.98 8.05 36.26 8.1 35.7C8.15 35.12 8.22 34.63 8.31 34.23C8.4 33.87 8.51 33.55 8.65 33.27C8.94 32.71 9.3 32.2 9.75 31.75C10.2 31.3 10.71 30.94 11.27 30.65C11.55 30.51 11.87 30.4 12.23 30.31C12.63 30.22 13.12 30.15 13.7 30.1C14.26 30.05 14.98 30.02 15.86 30.01L15.86 30.01M34 27L34 33L28 33L28 37L34 37L34 43L38 43L38 37L44 37L44 33L38 33L38 27L34 27M34.5 33L34 33L34 34L29 34L29 35.99L35 35.99L35 41.99L36.99 41.99L36.99 35.99L42.99 35.99L42.99 34L36.99 34L36.99 28L35 28L35 33L34.5 33M27.99 28.99L18.79 28.99L18.79 28.99L15.85 29.01C14.94 29.02 14.2 29.05 13.62 29.1C12.99 29.15 12.45 29.23 12 29.34C11.56 29.44 11.16 29.58 10.82 29.76C10.16 30.09 9.57 30.52 9.05 31.04C8.52 31.57 8.09 32.16 7.76 32.82C7.58 33.16 7.44 33.56 7.34 34C7.23 34.45 7.15 34.99 7.1 35.62C7.05 36.2 7.02 36.94 7.01 37.84L6.99 41L27.99 41L27.99 42.99L6 42.99C5.72 42.99 5.48 42.9 5.29 42.7C5.09 42.51 5 42.27 5 41.99L5 40.8L5.01 37.8C5.02 36.86 5.06 36.08 5.11 35.46C5.17 34.73 5.26 34.09 5.39 33.54C5.53 32.94 5.73 32.4 5.98 31.91C6.41 31.06 6.96 30.3 7.63 29.63C8.3 28.96 9.06 28.41 9.91 27.98C10.4 27.73 10.95 27.53 11.54 27.39C12.09 27.26 12.73 27.17 13.46 27.11C14.08 27.06 14.87 27.02 15.81 27.01L18.8 27L27 27L27.99 27L27.99 28.99Z" fill="#595959" fill-opacity="1.000000" fill-rule="evenodd"/>
	</g>
</svg>
