<svg width="48.000000" height="48.000000" viewBox="0 0 48 48" fill="none" xmlns="http://www.w3.org/2000/svg" xmlns:xlink="http://www.w3.org/1999/xlink">
	<desc>
			Created with Pixso.
	</desc>
	<defs>
		<clipPath id="clip248_15673">
			<rect id="volume_音量" width="47.999992" height="48.000000" fill="white" fill-opacity="0"/>
		</clipPath>
	</defs>
	<g clip-path="url(#clip248_15673)">
		<path id="矢量 61" d="M26 7L26 41C26 41.55 25.8 42.02 25.41 42.41C25.02 42.8 24.55 43 24 43C23.75 43 23.51 42.95 23.28 42.86C23.05 42.77 22.84 42.65 22.66 42.48L13.23 34L6 34C5.44 34 4.97 33.8 4.58 33.41C4.19 33.02 4 32.55 4 32L4 16C4 15.44 4.19 14.97 4.58 14.58C4.97 14.19 5.44 14 6 14L13.23 14L22.66 5.51Q22.8 5.38 22.97 5.28L22.97 5.28L22.97 5.28Q23.14 5.18 23.33 5.11C23.58 5.02 23.84 4.98 24.1 5C24.36 5.01 24.62 5.08 24.86 5.19C25.1 5.3 25.3 5.46 25.48 5.66C25.65 5.84 25.77 6.05 25.86 6.28C25.95 6.51 26 6.75 26 7ZM22 36.5L22 11.49L15.33 17.48C15.15 17.65 14.94 17.77 14.71 17.86C14.48 17.95 14.24 18 14 18L8 18L8 30L14 30C14.24 30 14.48 30.04 14.71 30.13C14.94 30.22 15.15 30.34 15.33 30.51L22 36.5ZM39.65 18.26L32.05 18.26L32.05 14.26L39.65 14.26L39.65 18.26ZM43.25 22.51L30.25 22.51L30.25 26.51L43.25 26.51L43.25 22.51ZM39.65 34.76L32.05 34.76L32.05 30.76L39.65 30.76L39.65 34.76Z" fill="#595959" fill-opacity="1.000000" fill-rule="evenodd"/>
		<path id="矢量 61" d="M25.86 6.28C25.95 6.51 26 6.75 26 7L26 41C26 41.55 25.8 42.02 25.41 42.41C25.02 42.8 24.55 43 24 43C23.75 43 23.51 42.95 23.28 42.86C23.05 42.77 22.84 42.65 22.66 42.48L13.23 34L6 34C5.44 34 4.97 33.8 4.58 33.41C4.19 33.02 4 32.55 4 32L4 16C4 15.44 4.19 14.97 4.58 14.58C4.97 14.19 5.44 14 6 14L13.23 14L22.66 5.51C22.85 5.33 23.08 5.2 23.33 5.11C23.58 5.02 23.84 4.98 24.1 5C24.36 5.01 24.62 5.08 24.86 5.19C25.1 5.3 25.3 5.46 25.48 5.66C25.65 5.84 25.77 6.05 25.86 6.28L25.86 6.28M24.93 6.64C24.97 6.75 24.99 6.87 24.99 7L24.99 41C24.99 41.27 24.9 41.51 24.7 41.7C24.51 41.9 24.27 41.99 24 41.99C23.87 41.99 23.75 41.97 23.64 41.93C23.52 41.88 23.42 41.82 23.33 41.74L13.61 32.99L6 32.99C5.72 32.99 5.48 32.9 5.29 32.7C5.09 32.51 5 32.27 5 32L5 16C5 15.72 5.09 15.48 5.29 15.29C5.48 15.09 5.72 15 6 15L13.61 15L23.33 6.25C23.42 6.16 23.54 6.1 23.66 6.05C23.79 6.01 23.92 5.99 24.05 6C24.18 6 24.31 6.04 24.43 6.09C24.55 6.15 24.65 6.23 24.74 6.33C24.82 6.42 24.88 6.52 24.93 6.64M14.66 31.25L21.33 37.25L21.66 36.88L22 36.5L23 36.5L23 9.24L14.66 16.74C14.57 16.82 14.47 16.88 14.35 16.93C14.24 16.97 14.12 16.99 14 16.99L6.99 16.99L6.99 31L14 31C14.12 31 14.24 31.02 14.35 31.06C14.47 31.11 14.57 31.17 14.66 31.25M15.33 17.48L22 11.49L22 36.5L15.33 30.51C15.15 30.34 14.94 30.22 14.71 30.13C14.48 30.04 14.24 30 14 30L8 30L8 18L14 18C14.24 18 14.48 17.95 14.71 17.86C14.94 17.77 15.15 17.65 15.33 17.48L15.33 17.48M39.65 18.26L32.05 18.26L32.05 14.26L39.65 14.26L39.65 18.26M38.65 17.26L38.65 15.26L33.05 15.26L33.05 17.26L38.65 17.26M43.25 22.51L30.25 22.51L30.25 26.51L43.25 26.51L43.25 22.51M31.25 23.51L42.24 23.51L42.24 25.5L31.25 25.5L31.25 23.51M39.65 34.76L32.05 34.76L32.05 30.76L39.65 30.76L39.65 34.76M38.65 33.75L33.05 33.75L33.05 31.76L38.65 31.76L38.65 33.75Z" fill="#595959" fill-opacity="1.000000" fill-rule="evenodd"/>
	</g>
</svg>
