<svg width="48.000000" height="48.001465" viewBox="0 0 48 48.0015" fill="none" xmlns="http://www.w3.org/2000/svg" xmlns:xlink="http://www.w3.org/1999/xlink">
	<desc>
			Created with Pixso.
	</desc>
	<defs>
		<clipPath id="clip248_15623">
			<rect id="phone_电话" width="48.000000" height="48.001465" transform="matrix(-1 0 0 1 48 0)" fill="white" fill-opacity="0"/>
		</clipPath>
	</defs>
	<g clip-path="url(#clip248_15623)">
		<path id="path (边框)" d="M37.49 21.2L42.7 15.98L42.7 15.98C43.23 15.45 43.44 14.65 43.34 13.58C43.26 12.69 42.9 11.93 42.27 11.3L36.9 5.93C36.51 5.55 36.07 5.28 35.58 5.13C29.57 3.33 22.63 6.35 14.77 14.21C6.91 22.07 3.89 29.01 5.69 35.02C5.84 35.51 6.11 35.95 6.49 36.34L12.3 42.14C12.83 42.67 13.63 42.88 14.7 42.78C15.59 42.7 16.35 42.34 16.98 41.7L22.2 36.49C22.73 35.96 22.94 35.16 22.83 34.09C22.75 33.2 22.39 32.44 21.76 31.8L18.27 28.31C19.37 26.32 20.92 24.33 22.91 22.34C24.89 20.36 26.88 18.81 28.87 17.71L32.8 21.64C33.33 22.16 34.13 22.38 35.21 22.27C36.09 22.19 36.85 21.83 37.49 21.2L37.49 21.2M39.17 13.86L34.21 8.9C29.76 7.7 24.22 10.42 17.6 17.04C10.98 23.66 8.27 29.2 9.46 33.65L14.42 38.61L18.66 34.37L15.12 30.82C13.94 29.65 13.73 28.33 14.49 26.89C15.8 24.39 17.66 21.93 20.08 19.52C22.49 17.1 24.95 15.24 27.45 13.93C28.89 13.17 30.21 13.38 31.38 14.56L34.93 18.1L39.17 13.86Z" fill="#595959" fill-opacity="1.000000" fill-rule="evenodd"/>
		<path id="path (边框)" d="M37.49 21.2L42.7 15.98L42.7 15.98C43.23 15.45 43.44 14.65 43.34 13.58C43.26 12.69 42.9 11.93 42.27 11.3L36.9 5.93C36.51 5.55 36.07 5.28 35.58 5.13C29.57 3.33 22.63 6.35 14.77 14.21C6.91 22.07 3.89 29.01 5.69 35.02C5.84 35.51 6.11 35.95 6.49 36.34L12.3 42.14C12.83 42.67 13.63 42.88 14.7 42.78C15.59 42.7 16.35 42.34 16.98 41.7L22.2 36.49C22.73 35.96 22.94 35.16 22.83 34.09C22.75 33.2 22.39 32.44 21.76 31.8L18.27 28.31C19.37 26.32 20.92 24.33 22.91 22.34C24.89 20.36 26.88 18.81 28.87 17.71L32.8 21.64C33.33 22.16 34.13 22.38 35.21 22.27C36.09 22.19 36.85 21.83 37.49 21.2M41.99 15.28L41.99 15.28L36.78 20.49C36.32 20.95 35.76 21.22 35.11 21.28C34.35 21.35 33.82 21.23 33.51 20.93L29.05 16.46L28.39 16.83C26.31 17.98 24.25 19.59 22.2 21.64C20.15 23.69 18.55 25.75 17.39 27.83L17.03 28.49L21.05 32.51C21.51 32.98 21.78 33.53 21.84 34.18C21.91 34.94 21.8 35.47 21.49 35.78L16.27 41C15.81 41.46 15.25 41.72 14.6 41.78C13.84 41.86 13.31 41.74 13.01 41.44L7.2 35.63C6.93 35.36 6.75 35.07 6.65 34.73C4.96 29.1 7.9 22.5 15.48 14.92C23.06 7.34 29.66 4.4 35.29 6.09C35.63 6.19 35.92 6.37 36.19 6.64L41.56 12.01C42.02 12.47 42.28 13.02 42.34 13.67C42.42 14.43 42.3 14.96 42 15.27L41.99 15.28M40.58 13.86L34.73 8L34.47 7.93C29.65 6.64 23.79 9.44 16.89 16.33C10 23.23 7.2 29.09 8.5 33.91L8.57 34.17L14.42 40.02L20.08 34.37L15.83 30.11C15 29.28 14.85 28.36 15.38 27.35C16.64 24.94 18.44 22.57 20.78 20.22C23.13 17.88 25.5 16.08 27.91 14.81C28.92 14.29 29.85 14.44 30.68 15.27L34.93 19.52L40.58 13.86M39.17 13.86L34.21 8.9C29.76 7.7 24.22 10.42 17.6 17.04C10.98 23.66 8.27 29.2 9.46 33.65L14.42 38.61L18.66 34.37L15.12 30.82C13.94 29.65 13.73 28.33 14.49 26.89C15.8 24.39 17.66 21.93 20.08 19.52C22.49 17.1 24.95 15.24 27.45 13.93C28.89 13.17 30.21 13.38 31.38 14.56L34.93 18.1L39.17 13.86Z" fill="#595959" fill-opacity="1.000000" fill-rule="evenodd"/>
	</g>
</svg>
