<svg width="48.000000" height="48.000000" viewBox="0 0 48 48" fill="none" xmlns="http://www.w3.org/2000/svg" xmlns:xlink="http://www.w3.org/1999/xlink">
	<desc>
			Created with Pixso.
	</desc>
	<defs>
		<clipPath id="clip248_15781">
			<rect id="good_优秀" width="47.999992" height="48.000000" fill="white" fill-opacity="0"/>
		</clipPath>
	</defs>
	<g clip-path="url(#clip248_15781)">
		<path id="path (边框)" d="M37.33 41.98L37.4 41.91L37.92 41.53L44.07 22.21C44.26 21.6 44.31 20.98 44.21 20.35C44.12 19.84 43.71 19.13 42.96 18.24C42.84 18.11 42.79 18.04 42.78 18.03L42.5 17.64L42.07 17.43C41.5 17.14 40.9 17 40.26 17L33.9 17L34.23 16.13C34.87 14.45 34.94 12.75 34.44 11.03C33.93 9.3 32.95 7.9 31.51 6.84L28.97 4.97C28.36 4.52 27.45 4.45 26.23 4.76L26.12 4.79L25.31 4.91L16.01 17L12 17L12 43L35.26 43C35.87 43 36.56 42.66 37.33 41.98L37.33 41.98M34.53 39L40.2 21.18C40.15 21.13 40.1 21.07 40.04 21L28.09 21L30.5 14.71C30.82 13.87 30.85 13.01 30.6 12.15C30.34 11.29 29.86 10.59 29.13 10.06L27.39 8.77L17.98 21L16 21L16 39L34.53 39M9 43L9 17L5 17L5 43L9 43Z" fill="#595959" fill-opacity="1.000000" fill-rule="evenodd"/>
		<path id="path (边框)" d="M37.33 41.98L37.4 41.91L37.92 41.53L44.07 22.21C44.26 21.6 44.31 20.98 44.21 20.35C44.12 19.84 43.71 19.13 42.96 18.24C42.84 18.11 42.79 18.04 42.78 18.03L42.5 17.64L42.07 17.43C41.5 17.14 40.9 17 40.26 17L33.9 17L34.23 16.13C34.87 14.45 34.94 12.75 34.44 11.03C33.93 9.3 32.95 7.9 31.51 6.84L28.97 4.97C28.36 4.52 27.45 4.45 26.23 4.76L26.12 4.79L25.31 4.91L16.01 17L12 17L12 43L35.26 43C35.87 43 36.56 42.66 37.33 41.98L37.33 41.98M37.07 40.91L36.81 41.11L37.1 41.51L37.4 41.91L37.05 41.55L36.71 41.18L36.65 41.24C36.08 41.74 35.62 41.99 35.26 41.99L13 41.99L13 18L16.5 18L25.85 5.84L26.33 5.77L26.5 5.72C27.4 5.49 28.02 5.51 28.38 5.77L30.91 7.64C32.18 8.58 33.03 9.8 33.48 11.31C33.92 12.82 33.86 14.31 33.3 15.78L32.45 18L40.26 18C40.74 18 41.19 18.1 41.62 18.32L41.83 18.43L41.97 18.62C41.99 18.65 42.06 18.74 42.19 18.89C42.82 19.64 43.17 20.18 43.22 20.51C43.3 20.98 43.26 21.45 43.12 21.9L37.07 40.91M40.68 21.34L41.15 21.49L35.26 40L14.99 40L14.99 19.99L17.49 19.99L27.19 7.38L29.73 9.25C30.63 9.92 31.24 10.79 31.56 11.87C31.87 12.95 31.83 14.01 31.43 15.06L29.54 19.99L40.52 19.99L40.97 20.55L40.59 20.87L40.2 21.18C40.15 21.13 40.1 21.07 40.04 21L28.09 21L30.5 14.71C30.82 13.87 30.85 13.01 30.6 12.15C30.34 11.29 29.86 10.59 29.13 10.06L27.39 8.77L17.98 21L16 21L16 39L34.53 39L40.2 21.18L40.68 21.34M9 43L9 17L5 17L5 43L9 43M7.99 18L7.99 41.99L6 41.99L6 18L7.99 18Z" fill="#595959" fill-opacity="1.000000" fill-rule="evenodd"/>
	</g>
</svg>
