<svg width="48.000000" height="48.000000" viewBox="0 0 48 48" fill="none" xmlns="http://www.w3.org/2000/svg" xmlns:xlink="http://www.w3.org/1999/xlink">
	<desc>
			Created with Pixso.
	</desc>
	<defs>
		<clipPath id="clip248_15811">
			<rect id="bad_投诉" width="47.999992" height="48.000000" fill="white" fill-opacity="0"/>
		</clipPath>
	</defs>
	<g clip-path="url(#clip248_15811)">
		<path id="path (边框)" d="M10.66 6.01L10.59 6.08L10.07 6.46L3.92 25.78C3.73 26.39 3.68 27.01 3.78 27.64C3.87 28.15 4.28 28.86 5.03 29.75C5.15 29.88 5.2 29.95 5.21 29.96L5.49 30.35L5.92 30.56C6.49 30.85 7.09 31 7.73 31L14.09 31L13.76 31.86C13.12 33.54 13.05 35.24 13.55 36.96C14.06 38.69 15.04 40.09 16.48 41.15L19.02 43.02C19.63 43.47 20.54 43.54 21.76 43.23L21.87 43.2L22.68 43.08L31.98 31L36 31L36 5L12.73 5C12.12 5 11.43 5.33 10.66 6.01L10.66 6.01M39 5L39 31L43 31L43 5L39 5M13.46 9L7.79 26.81C7.84 26.86 7.89 26.92 7.95 27L19.9 27L17.5 33.28C17.17 34.12 17.14 34.98 17.39 35.84C17.65 36.7 18.13 37.4 18.86 37.93L20.6 39.22L30.01 27L32 27L32 9L13.46 9Z" fill="#595959" fill-opacity="1.000000" fill-rule="evenodd"/>
		<path id="path (边框)" d="M10.66 6.01L10.59 6.08L10.07 6.46L3.92 25.78C3.73 26.39 3.68 27.01 3.78 27.64C3.87 28.15 4.28 28.86 5.03 29.75C5.15 29.88 5.2 29.95 5.21 29.96L5.49 30.35L5.92 30.56C6.49 30.85 7.09 31 7.73 31L14.09 31L13.76 31.86C13.12 33.54 13.05 35.24 13.55 36.96C14.06 38.69 15.04 40.09 16.48 41.15L19.02 43.02C19.63 43.47 20.54 43.54 21.76 43.23L21.87 43.2L22.68 43.08L31.98 31L36 31L36 5L12.73 5C12.12 5 11.43 5.33 10.66 6.01M10.94 6.44L10.59 6.08L10.89 6.48L11.18 6.89L10.92 7.08L4.87 26.08C4.73 26.54 4.69 27.01 4.77 27.48C4.82 27.81 5.17 28.35 5.8 29.1C5.93 29.25 6 29.34 6.02 29.37L6.16 29.56L6.37 29.67C6.8 29.89 7.25 29.99 7.73 29.99L15.54 29.99L14.69 32.21C14.13 33.68 14.07 35.17 14.51 36.68C14.96 38.19 15.81 39.41 17.08 40.35L19.62 42.22C19.97 42.48 20.59 42.5 21.49 42.27L21.66 42.22L22.14 42.15L31.49 29.99L35 29.99L35 6L12.73 6C12.37 6 11.91 6.25 11.34 6.75L11.28 6.81L10.94 6.44M39 5L39 31L43 31L43 5L39 5M40 29.99L42 29.99L42 6L40 6L40 29.99M12.73 7.99L6.67 27.02L7.02 27.44L7.47 28L18.45 28L16.56 32.93C16.16 33.98 16.12 35.04 16.43 36.12C16.75 37.2 17.36 38.07 18.27 38.74L20.8 40.61L30.5 28L33 28L33 7.99L12.73 7.99M13.46 9L7.79 26.81C7.84 26.86 7.89 26.92 7.95 27L19.9 27L17.5 33.28C17.17 34.12 17.14 34.98 17.39 35.84C17.65 36.7 18.13 37.4 18.86 37.93L20.6 39.22L30.01 27L32 27L32 9L13.46 9Z" fill="#595959" fill-opacity="1.000000" fill-rule="evenodd"/>
	</g>
</svg>
