<svg width="48.000000" height="48.000000" viewBox="0 0 48 48" fill="none" xmlns="http://www.w3.org/2000/svg" xmlns:xlink="http://www.w3.org/1999/xlink">
	<desc>
			Created with Pixso.
	</desc>
	<defs>
		<clipPath id="clip248_15675">
			<rect id="help_帮助" width="47.999992" height="48.000000" fill="white" fill-opacity="0"/>
		</clipPath>
	</defs>
	<g clip-path="url(#clip248_15675)">
		<path id="矢量 53 (边框)" d="M9.85 38.14C13.76 42.04 18.47 44 24 44C29.52 44 34.23 42.04 38.14 38.14C42.04 34.23 44 29.52 44 24C44 18.47 42.04 13.76 38.14 9.85C34.23 5.95 29.52 4 24 4C18.47 4 13.76 5.95 9.85 9.85C5.95 13.76 4 18.47 4 24C4 29.52 5.95 34.23 9.85 38.14L9.85 38.14M35.31 35.31C32.18 38.43 28.41 40 24 40C19.58 40 15.81 38.43 12.68 35.31C9.56 32.18 8 28.41 8 24C8 19.58 9.56 15.81 12.68 12.68C15.81 9.56 19.58 8 24 8C28.41 8 32.18 9.56 35.31 12.68C38.43 15.81 40 19.58 40 24C40 28.41 38.43 32.18 35.31 35.31L35.31 35.31M22 28.01L22 29.01L26 28.98L26 27.98C26 27.3 26.65 26.38 27.96 25.25C29.07 24.28 29.88 23.46 30.38 22.78C31.87 20.78 31.85 18.62 30.33 16.3C28.89 14.1 26.78 13 23.98 13C19.07 13 16.61 15.16 16.59 19.5L20.59 19.52C20.6 17.84 21.73 17 23.98 17C25.33 17 26.33 17.49 26.99 18.49C27.49 19.25 27.55 19.89 27.17 20.4C26.84 20.84 26.23 21.45 25.34 22.23C23.11 24.16 22 26.09 22 28.01L22 28.01M26 35L26 31L22 31L22 35L26 35Z" fill="#595959" fill-opacity="1.000000" fill-rule="evenodd"/>
		<path id="矢量 53 (边框)" d="M9.85 38.14C13.76 42.04 18.47 44 24 44C29.52 44 34.23 42.04 38.14 38.14C42.04 34.23 44 29.52 44 24C44 18.47 42.04 13.76 38.14 9.85C34.23 5.95 29.52 4 24 4C18.47 4 13.76 5.95 9.85 9.85C5.95 13.76 4 18.47 4 24C4 29.52 5.95 34.23 9.85 38.14M37.43 37.43C33.72 41.14 29.24 42.99 24 42.99C18.75 42.99 14.27 41.14 10.56 37.43C6.85 33.72 5 29.24 5 24C5 18.75 6.85 14.27 10.56 10.56C14.27 6.85 18.75 5 24 5C29.24 5 33.72 6.85 37.43 10.56C41.14 14.27 42.99 18.75 42.99 24C42.99 29.24 41.14 33.72 37.43 37.43M11.97 36.02C15.29 39.34 19.3 41 24 41C28.69 41 32.7 39.34 36.02 36.02C39.34 32.7 41 28.69 41 24C41 19.3 39.34 15.29 36.02 11.97C32.7 8.65 28.69 6.99 24 6.99C19.3 6.99 15.29 8.65 11.97 11.97C8.65 15.29 6.99 19.3 6.99 24C6.99 28.69 8.65 32.7 11.97 36.02M35.31 35.31C32.18 38.43 28.41 40 24 40C19.58 40 15.81 38.43 12.68 35.31C9.56 32.18 8 28.41 8 24C8 19.58 9.56 15.81 12.68 12.68C15.81 9.56 19.58 8 24 8C28.41 8 32.18 9.56 35.31 12.68C38.43 15.81 40 19.58 40 24C40 28.41 38.43 32.18 35.31 35.31M22 28.01L22 29.01L26 28.98L26 27.98C26 27.3 26.65 26.38 27.96 25.25C29.07 24.28 29.88 23.46 30.38 22.78C31.87 20.78 31.85 18.62 30.33 16.3C28.89 14.1 26.78 13 23.98 13C19.07 13 16.61 15.16 16.59 19.5L20.59 19.52C20.6 17.84 21.73 17 23.98 17C25.33 17 26.33 17.49 26.99 18.49C27.49 19.25 27.55 19.89 27.17 20.4C26.84 20.84 26.23 21.45 25.34 22.23C23.11 24.16 22 26.09 22 28.01M23 28C23 26.39 24 24.71 25.99 22.98C26.94 22.16 27.6 21.5 27.97 21C28.63 20.11 28.58 19.09 27.82 17.94C26.97 16.64 25.69 15.99 23.98 15.99C21.51 15.99 20.09 16.83 19.7 18.51L17.66 18.51C18.03 15.5 20.14 14 23.98 14C26.41 14 28.25 14.95 29.5 16.85C30.76 18.78 30.79 20.56 29.58 22.19C29.12 22.8 28.36 23.57 27.3 24.49C25.76 25.83 24.99 26.99 24.99 27.99L23 28M26 35L26 31L22 31L22 35L26 35M25 32L23 32L23 34L25 34L25 32Z" fill="#595959" fill-opacity="1.000000" fill-rule="evenodd"/>
	</g>
</svg>
