<svg width="48.000000" height="48.000000" viewBox="0 0 48 48" fill="none" xmlns="http://www.w3.org/2000/svg" xmlns:xlink="http://www.w3.org/1999/xlink">
	<desc>
			Created with Pixso.
	</desc>
	<defs>
		<clipPath id="clip248_15903">
			<rect id="volume-mute_静音" width="47.999992" height="48.000000" fill="white" fill-opacity="0"/>
		</clipPath>
	</defs>
	<g clip-path="url(#clip248_15903)">
		<path id="矢量 59 (边框)" d="M25.75 2.72L17.66 10.01L20.33 12.98L21.9 11.57L22 17.03L26 16.96L25.75 2.72M42.91 40.08L7.91 5.08L5.08 7.91L40.08 42.91L42.91 40.08M40.92 32.86C45.09 24.22 43.83 16.55 37.14 9.85L34.31 12.68C39.66 18.04 40.67 24.18 37.32 31.13L40.92 32.86M9.08 18L10 18L10 14L5.11 14L4.98 33.87L13.22 33.98L25.75 45.27L26 31.03L22 30.96L21.9 36.42L14.78 30.01L9.01 29.92L9.08 18M34.65 26.74C36.19 22.9 35.13 19.16 31.48 15.51L28.65 18.34C31.06 20.74 31.82 23.05 30.94 25.25L34.65 26.74Z" fill="#595959" fill-opacity="1.000000" fill-rule="evenodd"/>
		<path id="矢量 59 (边框)" d="M25.75 2.72L17.66 10.01L20.33 12.98L21.9 11.57L22 17.03L26 16.96L25.75 2.72M19.07 10.08L20.41 11.57L22.87 9.36L22.98 16.01L24.98 15.98L24.79 4.93L19.07 10.08M42.91 40.08L7.91 5.08L5.08 7.91L40.08 42.91L42.91 40.08M7.91 6.5L41.5 40.08L40.08 41.49L6.5 7.91L7.91 6.5M40.92 32.86C45.09 24.22 43.83 16.55 37.14 9.85L34.31 12.68C39.66 18.04 40.67 24.18 37.32 31.13L40.92 32.86M37.13 11.28L35.71 12.7C40.57 17.98 41.54 23.96 38.64 30.65L40.44 31.52C43.76 23.98 42.65 17.23 37.13 11.28M9.01 29.92L9.08 18L10 18L10 14L5.11 14L4.98 33.87L13.22 33.98L25.75 45.27L26 31.03L22 30.96L21.9 36.42L14.78 30.01L9.01 29.92M9 15L6.1 15L5.99 32.88L13.61 32.99L24.79 43.06L24.98 32.01L22.98 31.98L22.87 38.63L14.39 31L8 30.91L8.09 16.99L9 16.99L9 15M34.65 26.74C36.19 22.9 35.13 19.16 31.48 15.51L28.65 18.34C31.06 20.74 31.82 23.05 30.94 25.25L34.65 26.74M31.46 16.94L30.05 18.36C31.92 20.49 32.63 22.6 32.17 24.67L34.04 25.42C34.83 22.56 33.96 19.74 31.46 16.94L31.46 16.94Z" fill="#595959" fill-opacity="1.000000" fill-rule="evenodd"/>
	</g>
</svg>
