<svg width="48.000000" height="48.000000" viewBox="0 0 48 48" fill="none" xmlns="http://www.w3.org/2000/svg" xmlns:xlink="http://www.w3.org/1999/xlink">
	<desc>
			Created with Pixso.
	</desc>
	<defs>
		<clipPath id="clip248_15871">
			<rect id="close1_关闭1" width="47.999992" height="48.000000" fill="white" fill-opacity="0"/>
		</clipPath>
	</defs>
	<g clip-path="url(#clip248_15871)">
		<path id="矢量 65 (边框)" d="M9.85 38.14C13.76 42.04 18.47 44 24 44C29.52 44 34.23 42.04 38.14 38.14C42.04 34.23 44 29.52 44 24C44 18.47 42.04 13.76 38.14 9.85C34.23 5.95 29.52 4 24 4C18.47 4 13.76 5.95 9.85 9.85C5.95 13.76 4 18.47 4 24C4 29.52 5.95 34.23 9.85 38.14L9.85 38.14M35.31 35.31C32.18 38.43 28.41 40 24 40C19.58 40 15.81 38.43 12.68 35.31C9.56 32.18 8 28.41 8 24C8 19.58 9.56 15.81 12.68 12.68C15.81 9.56 19.58 8 24 8C28.41 8 32.18 9.56 35.31 12.68C38.43 15.81 40 19.58 40 24C40 28.41 38.43 32.18 35.31 35.31L35.31 35.31M24 21.17L19.05 16.22L16.22 19.05L21.17 24L16.22 28.95L19.05 31.78L24 26.83L28.95 31.78L31.78 28.95L26.83 24L31.78 19.05L28.95 16.22L24 21.17Z" fill="#595959" fill-opacity="1.000000" fill-rule="evenodd"/>
		<path id="矢量 65 (边框)" d="M9.85 38.14C13.76 42.04 18.47 44 24 44C29.52 44 34.23 42.04 38.14 38.14C42.04 34.23 44 29.52 44 24C44 18.47 42.04 13.76 38.14 9.85C34.23 5.95 29.52 4 24 4C18.47 4 13.76 5.95 9.85 9.85C5.95 13.76 4 18.47 4 24C4 29.52 5.95 34.23 9.85 38.14M37.43 37.43C33.72 41.14 29.24 42.99 24 42.99C18.75 42.99 14.27 41.14 10.56 37.43C6.85 33.72 5 29.24 5 24C5 18.75 6.85 14.27 10.56 10.56C14.27 6.85 18.75 5 24 5C29.24 5 33.72 6.85 37.43 10.56C41.14 14.27 42.99 18.75 42.99 24C42.99 29.24 41.14 33.72 37.43 37.43M11.97 36.02C15.29 39.34 19.3 41 24 41C28.69 41 32.7 39.34 36.02 36.02C39.34 32.7 41 28.69 41 24C41 19.3 39.34 15.29 36.02 11.97C32.7 8.65 28.69 6.99 24 6.99C19.3 6.99 15.29 8.65 11.97 11.97C8.65 15.29 6.99 19.3 6.99 24C6.99 28.69 8.65 32.7 11.97 36.02M35.31 35.31C32.18 38.43 28.41 40 24 40C19.58 40 15.81 38.43 12.68 35.31C9.56 32.18 8 28.41 8 24C8 19.58 9.56 15.81 12.68 12.68C15.81 9.56 19.58 8 24 8C28.41 8 32.18 9.56 35.31 12.68C38.43 15.81 40 19.58 40 24C40 28.41 38.43 32.18 35.31 35.31M24 21.17L19.05 16.22L16.22 19.05L21.17 24L16.22 28.95L19.05 31.78L24 26.83L28.95 31.78L31.78 28.95L26.83 24L31.78 19.05L28.95 16.22L24 21.17M19.05 17.64L17.64 19.05L22.59 24L17.64 28.95L19.05 30.37L24 25.42L28.95 30.37L30.37 28.95L25.42 24L30.36 19.05L28.95 17.64L24 22.59L19.05 17.64Z" fill="#595959" fill-opacity="1.000000" fill-rule="evenodd"/>
	</g>
</svg>
