<svg width="48.000000" height="48.000000" viewBox="0 0 48 48" fill="none" xmlns="http://www.w3.org/2000/svg" xmlns:xlink="http://www.w3.org/1999/xlink">
	<desc>
			Created with Pixso.
	</desc>
	<defs>
		<clipPath id="clip248_15839">
			<rect id="preview-close_预览关闭" width="47.999992" height="48.000000" fill="white" fill-opacity="0"/>
		</clipPath>
	</defs>
	<g clip-path="url(#clip248_15839)">
		<path id="矢量 57 (边框)" d="M20.49 17.91L8.26 5.68L5.43 8.51L11.17 14.25C8.89 16.33 6.6 19.22 4.29 22.94L3.64 24L4.29 25.05C10.06 34.35 16.63 39 23.99 39C27.22 39 30.3 38.1 33.23 36.31L39.73 42.81L42.56 39.98L30.08 27.5C30.69 26.46 30.99 25.29 30.99 24C30.99 22.06 30.31 20.41 28.94 19.05C27.58 17.68 25.93 17 23.99 17C22.7 17 21.53 17.3 20.49 17.91L20.49 17.91M17.74 20.82L14 17.08C12.17 18.71 10.29 21.02 8.36 23.99C13.16 31.33 18.37 35 23.99 35C26.16 35 28.26 34.45 30.3 33.37L27.17 30.25C26.22 30.75 25.16 30.99 23.99 30.99C22.06 30.99 20.41 30.31 19.04 28.95C17.68 27.58 16.99 25.93 16.99 24C16.99 22.83 17.24 21.77 17.74 20.82L17.74 20.82M23.91 26.99C23.12 26.98 22.44 26.68 21.87 26.12C21.31 25.55 21.01 24.87 21 24.07L23.91 26.99M26.97 24.39L23.6 21.02C23.73 21 23.86 21 23.99 21C24.82 21 25.53 21.29 26.12 21.87C26.7 22.46 26.99 23.17 26.99 24C26.99 24.13 26.99 24.26 26.97 24.39L26.97 24.39M23.99 9C20.12 9 17.47 9.68 16.06 11.06L18.85 13.93C19.49 13.31 21.2 13 23.99 13C29.62 13 34.83 16.66 39.62 24C38.15 26.25 36.63 28.16 35.08 29.72L37.91 32.55C39.92 30.53 41.85 28.03 43.69 25.05L44.35 24L43.69 22.94C37.93 13.64 31.36 9 23.99 9L23.99 9Z" fill="#595959" fill-opacity="1.000000" fill-rule="evenodd"/>
		<path id="矢量 57 (边框)" d="M20.49 17.91L8.26 5.68L5.43 8.51L11.17 14.25C8.89 16.33 6.6 19.22 4.29 22.94L3.64 24L4.29 25.05C10.06 34.35 16.63 39 23.99 39C27.22 39 30.3 38.1 33.23 36.31L39.73 42.81L42.56 39.98L30.08 27.5C30.69 26.46 30.99 25.29 30.99 24C30.99 22.06 30.31 20.41 28.94 19.05C27.58 17.68 25.93 17 23.99 17C22.7 17 21.53 17.3 20.49 17.91M8.26 7.1L6.85 8.51L12.61 14.28L11.84 14.98C9.63 17 7.4 19.83 5.15 23.47L4.82 24L5.15 24.52C10.71 33.5 17 37.99 23.99 37.99C27.03 37.99 29.93 37.15 32.71 35.45L33.38 35.04L39.73 41.39L41.14 39.98L28.82 27.66L29.21 26.99C29.73 26.11 29.99 25.11 29.99 24C29.99 22.34 29.41 20.92 28.24 19.75C27.07 18.58 25.65 18 23.99 18C22.88 18 21.88 18.26 21 18.78L20.33 19.17L8.26 7.1M23.99 9C20.12 9 17.47 9.68 16.06 11.06L18.85 13.93C19.49 13.31 21.2 13 23.99 13C29.62 13 34.83 16.66 39.62 24C38.15 26.25 36.63 28.16 35.08 29.72L37.91 32.55C39.92 30.53 41.85 28.03 43.69 25.05L44.35 24L43.69 22.94C37.93 13.64 31.36 9 23.99 9M17.57 11.18L19.02 12.66C20.06 12.22 21.72 11.99 23.99 11.99C29.98 11.99 35.47 15.81 40.46 23.45L40.82 24L40.46 24.54C39.17 26.52 37.84 28.24 36.48 29.71L37.9 31.12C39.6 29.29 41.25 27.09 42.84 24.52L43.17 24L42.84 23.47C37.28 14.49 30.99 10 23.99 10C21.06 10 18.92 10.39 17.57 11.18M14.35 16.72L14.7 16.37L18.96 20.62L18.63 21.27C18.21 22.09 18 22.99 18 24C18 25.65 18.58 27.07 19.75 28.24C20.92 29.41 22.34 29.99 23.99 29.99C25 29.99 25.9 29.78 26.72 29.36L27.37 29.03L31.96 33.62L30.76 34.26C28.58 35.42 26.33 36 23.99 36C18.01 36 12.52 32.18 7.53 24.54L7.17 24L7.52 23.45C9.5 20.4 11.44 18.02 13.33 16.33L13.66 16.7L14 17.08C12.17 18.71 10.29 21.02 8.36 23.99C13.16 31.33 18.37 35 23.99 35C26.16 35 28.26 34.45 30.3 33.37L27.17 30.25C26.22 30.75 25.16 30.99 23.99 30.99C22.06 30.99 20.41 30.31 19.04 28.95C17.68 27.58 16.99 25.93 16.99 24C16.99 22.83 17.24 21.77 17.74 20.82L14 17.08L14.35 16.72M23.99 19.99C23.82 19.99 23.65 20.01 23.48 20.03L23.54 20.52L23.6 21.02L23.24 21.37L22.89 21.73L27.72 26.55L27.96 24.51C27.98 24.34 28 24.17 28 24C28 22.89 27.6 21.95 26.82 21.17C26.04 20.39 25.1 19.99 23.99 19.99M23.6 21.02C23.73 21 23.86 21 23.99 21C24.82 21 25.53 21.29 26.12 21.87C26.7 22.46 26.99 23.17 26.99 24C26.99 24.13 26.99 24.26 26.97 24.39L23.6 21.02M20 24.1C20.02 25.16 20.41 26.07 21.17 26.82L21.52 26.47L21.75 26.24L21.75 26.24L21.52 26.47L21.17 26.82C21.92 27.58 22.83 27.97 23.89 27.99L26.39 28.05L19.94 21.6L20 24.1M21.87 26.12C22.44 26.68 23.12 26.98 23.91 26.99L21 24.07C21.01 24.87 21.31 25.55 21.87 26.12L21.87 26.12Z" fill="#595959" fill-opacity="1.000000" fill-rule="evenodd"/>
	</g>
</svg>
