<svg width="48.000000" height="48.000053" viewBox="0 0 48 48.0001" fill="none" xmlns="http://www.w3.org/2000/svg" xmlns:xlink="http://www.w3.org/1999/xlink">
	<desc>
			Created with Pixso.
	</desc>
	<defs>
		<clipPath id="clip248_15621">
			<rect id="mail_邮件" width="48.000000" height="48.000053" fill="white" fill-opacity="0"/>
		</clipPath>
	</defs>
	<g clip-path="url(#clip248_15621)">
		<path id="矢量 46 (边框)" d="M44 41C44.55 41 45.02 40.8 45.41 40.41C45.8 40.02 46 39.55 46 39L46 9C46 8.44 45.8 7.97 45.41 7.58C45.02 7.19 44.55 7 44 7L4 7C3.44 7 2.97 7.19 2.58 7.58C2.19 7.97 2 8.44 2 9L2 39C2 39.55 2.19 40.02 2.58 40.41C2.97 40.8 3.44 41 4 41L44 41M6 13L6 37L42 37L42 13L25.2 25.6C24.4 26.2 23.6 26.2 22.8 25.6L6 13M38 11L10 11L24 21.5L38 11Z" fill="#595959" fill-opacity="1.000000" fill-rule="evenodd"/>
		<path id="矢量 46 (边框)" d="M44 41C44.55 41 45.02 40.8 45.41 40.41C45.8 40.02 46 39.55 46 39L46 9C46 8.44 45.8 7.97 45.41 7.58C45.02 7.19 44.55 7 44 7L4 7C3.44 7 2.97 7.19 2.58 7.58C2.19 7.97 2 8.44 2 9L2 39C2 39.55 2.19 40.02 2.58 40.41C2.97 40.8 3.44 41 4 41L44 41M44.99 39C44.99 39.27 44.9 39.51 44.7 39.7C44.51 39.9 44.27 39.99 44 39.99L4 39.99C3.72 39.99 3.48 39.9 3.29 39.7C3.09 39.51 3 39.27 3 39L3 9C3 8.72 3.09 8.48 3.29 8.29C3.48 8.09 3.72 8 4 8L44 8C44.27 8 44.51 8.09 44.7 8.29C44.9 8.48 44.99 8.72 44.99 9L44.99 39M41 9.99L6.99 9.99L9.39 11.8L24 22.75L41 9.99M5.5 37L4.99 37L4.99 10.99L23.4 24.79C23.8 25.09 24.2 25.09 24.59 24.79L43 10.99L43 38L6 38L6 37L42 37L42 13L25.2 25.6C24.4 26.2 23.6 26.2 22.8 25.6L6 13L6 37L5.5 37M24 21.5L38 11L10 11L24 21.5Z" fill="#595959" fill-opacity="1.000000" fill-rule="evenodd"/>
	</g>
</svg>
