<svg width="48.000000" height="48.000000" viewBox="0 0 48 48" fill="none" xmlns="http://www.w3.org/2000/svg" xmlns:xlink="http://www.w3.org/1999/xlink">
	<desc>
			Created with Pixso.
	</desc>
	<defs>
		<clipPath id="clip3_1430">
			<rect id="app_应用" width="48.000000" height="48.000053" fill="white" fill-opacity="0"/>
		</clipPath>
	</defs>
	<g clip-path="url(#clip3_1430)">
		<path id="矢量 42" d="M8 4L18 4C18.54 4 19.06 4.1 19.55 4.31C20.03 4.51 20.45 4.8 20.82 5.17C21.19 5.54 21.48 5.96 21.68 6.44C21.89 6.93 22 7.45 22 8L22 18C22 18.54 21.89 19.06 21.68 19.55C21.48 20.03 21.19 20.46 20.82 20.82C20.45 21.19 20.03 21.48 19.55 21.68C19.06 21.89 18.54 22 18 22L8 22C7.45 22 6.93 21.89 6.44 21.68C5.96 21.48 5.54 21.19 5.17 20.82C4.8 20.46 4.51 20.03 4.31 19.55C4.1 19.06 4 18.54 4 18L4 8C4 7.45 4.1 6.93 4.31 6.44C4.51 5.96 4.8 5.54 5.17 5.17C5.54 4.8 5.96 4.51 6.44 4.31C6.93 4.1 7.45 4 8 4ZM39.99 4L30 4C29.45 4 28.93 4.1 28.44 4.31C27.96 4.51 27.53 4.8 27.17 5.17C26.8 5.54 26.51 5.96 26.31 6.44C26.1 6.93 26 7.45 26 8L26 18C26 18.54 26.1 19.06 26.31 19.55C26.51 20.03 26.8 20.46 27.17 20.82C27.53 21.19 27.96 21.48 28.44 21.68C28.93 21.89 29.45 22 30 22L39.99 22C40.54 22 41.06 21.89 41.55 21.68C42.03 21.48 42.46 21.19 42.82 20.82C43.19 20.46 43.48 20.03 43.68 19.55C43.89 19.06 44 18.54 44 18L44 8C44 7.45 43.89 6.93 43.68 6.44C43.48 5.96 43.19 5.54 42.82 5.17C42.46 4.8 42.03 4.51 41.55 4.31C41.06 4.1 40.54 4 39.99 4ZM8 18L8 8L18 8L18 18L8 18ZM30 8L30 18L39.99 18L39.99 8L30 8ZM8 26L18 26C18.54 26 19.06 26.1 19.55 26.31C20.03 26.51 20.45 26.8 20.82 27.17C21.19 27.53 21.48 27.96 21.68 28.44C21.89 28.93 22 29.45 22 30L22 40C22 40.54 21.89 41.06 21.68 41.55C21.48 42.03 21.19 42.46 20.82 42.82C20.45 43.19 20.03 43.48 19.55 43.68C19.06 43.89 18.54 44 18 44L8 44C7.45 44 6.93 43.89 6.44 43.68C5.96 43.48 5.54 43.19 5.17 42.82C4.8 42.46 4.51 42.03 4.31 41.55C4.1 41.06 4 40.54 4 40L4 30C4 29.45 4.1 28.93 4.31 28.44C4.51 27.96 4.8 27.53 5.17 27.17C5.54 26.8 5.96 26.51 6.44 26.31C6.93 26.1 7.45 26 8 26ZM30 26L39.99 26C40.54 26 41.06 26.1 41.55 26.31C42.03 26.51 42.46 26.8 42.82 27.17C43.19 27.53 43.48 27.96 43.68 28.44C43.89 28.93 44 29.45 44 30L44 40C44 40.54 43.89 41.06 43.68 41.55C43.48 42.03 43.19 42.46 42.82 42.82C42.46 43.19 42.03 43.48 41.55 43.68C41.06 43.89 40.54 44 39.99 44L30 44C29.45 44 28.93 43.89 28.44 43.68C27.96 43.48 27.53 43.19 27.17 42.82C26.8 42.46 26.51 42.03 26.31 41.55C26.1 41.06 26 40.54 26 40L26 30C26 29.45 26.1 28.93 26.31 28.44C26.51 27.96 26.8 27.53 27.17 27.17C27.53 26.8 27.96 26.51 28.44 26.31C28.93 26.1 29.45 26 30 26ZM8 40L8 30L18 30L18 40L8 40ZM30 40L30 30L39.99 30L39.99 40L30 40Z" fill="#595959" fill-opacity="1.000000" fill-rule="evenodd"/>
	</g>
</svg>
