<svg width="48.000000" height="48.000000" viewBox="0 0 48 48" fill="none" xmlns="http://www.w3.org/2000/svg" xmlns:xlink="http://www.w3.org/1999/xlink">
	<desc>
			Created with Pixso.
	</desc>
	<defs>
		<clipPath id="clip248_15845">
			<rect id="edit_编辑" width="48.000000" height="48.000000" fill="white" fill-opacity="0"/>
		</clipPath>
	</defs>
	<g clip-path="url(#clip248_15845)">
		<path id="矢量 66 (边框)" d="M44 39.99L44 26L40 26L40 39.99L40 40L8 40L8 39.99L8 8L8 8L22 8L22 4L8 4C6.89 4 5.95 4.39 5.17 5.17C4.39 5.95 4 6.89 4 8L4 39.99C4 41.1 4.39 42.04 5.17 42.82C5.95 43.6 6.89 44 8 44L40 44C41.1 44 42.04 43.6 42.82 42.82C43.6 42.04 44 41.1 44 39.99L44 39.99M12 33.99C12 34.55 12.19 35.02 12.58 35.41C12.97 35.8 13.44 35.99 14 35.99L21.31 35.99C21.86 35.99 22.34 35.8 22.73 35.41L43.41 14.72C43.8 14.33 44 13.86 44 13.3C44 12.75 43.8 12.28 43.41 11.89L36.1 4.58C35.71 4.19 35.24 4 34.69 4C34.14 3.99 33.67 4.19 33.28 4.58L33.28 4.58L12.58 25.3C12.19 25.69 12 26.16 12 26.71L12 33.99M16 31.99L20.48 31.99L39.17 13.3L34.69 8.82L16 27.54L16 31.99Z" fill="#595959" fill-opacity="1.000000" fill-rule="evenodd"/>
		<path id="矢量 66 (边框)" d="M12 33.99C12 34.55 12.19 35.02 12.58 35.41C12.97 35.8 13.44 35.99 14 35.99L21.31 35.99C21.86 35.99 22.34 35.8 22.73 35.41L43.41 14.72C43.8 14.33 44 13.86 44 13.3C44 12.75 43.8 12.28 43.41 11.89L36.1 4.58C35.71 4.19 35.24 4 34.69 4C34.14 3.99 33.67 4.19 33.28 4.58L33.28 4.58L12.58 25.3C12.19 25.69 12 26.16 12 26.71L12 33.99M42.82 42.82C43.6 42.04 44 41.1 44 39.99L44 26L40 26L40 39.99L40 40L8 40L8 39.99L8 8L8 8L22 8L22 4L8 4C6.89 4 5.95 4.39 5.17 5.17C4.39 5.95 4 6.89 4 8L4 39.99C4 41.1 4.39 42.04 5.17 42.82C5.95 43.6 6.89 44 8 44L40 44C41.1 44 42.04 43.6 42.82 42.82L42.82 42.82M41 27L42.99 27L42.99 39.99C42.99 40.82 42.7 41.53 42.12 42.12C41.53 42.7 40.82 42.99 40 42.99L8 42.99C7.17 42.99 6.46 42.7 5.87 42.12C5.29 41.53 5 40.82 5 39.99L5 8C5 7.17 5.29 6.46 5.87 5.87C6.46 5.29 7.17 5 8 5L20.99 5L20.99 6.99L7.58 6.99L6.99 7.58L6.99 40.41L7.58 41L40.41 41L41 40.41L41 27M14 34.99C13.72 34.99 13.48 34.9 13.29 34.7C13.09 34.51 13 34.27 13 33.99L13 26.71C13 26.44 13.09 26.2 13.29 26.01L33.98 5.29L33.98 5.29C34.18 5.09 34.41 5 34.69 5C34.97 5 35.2 5.09 35.4 5.29L42.7 12.6C42.9 12.79 42.99 13.03 42.99 13.3C42.99 13.58 42.9 13.81 42.7 14.01L22.02 34.7C21.82 34.9 21.59 34.99 21.31 34.99L14 34.99M14.99 33L20.9 33L21.19 32.7L40.58 13.3L34.69 7.41L14.99 27.13L14.99 33M34.69 8.82L16 27.54L16 31.99L20.48 31.99L39.17 13.3L34.69 8.82Z" fill="#595959" fill-opacity="1.000000" fill-rule="evenodd"/>
	</g>
</svg>
