<svg width="48.000000" height="48.000000" viewBox="0 0 48 48" fill="none" xmlns="http://www.w3.org/2000/svg" xmlns:xlink="http://www.w3.org/1999/xlink">
	<desc>
			Created with Pixso.
	</desc>
	<defs>
		<clipPath id="clip248_15847">
			<rect id="search_搜索" width="48.000000" height="48.000000" fill="white" fill-opacity="0"/>
		</clipPath>
	</defs>
	<g clip-path="url(#clip248_15847)">
		<path id="矢量 71 (边框)" d="M35.78 32.95C38.59 29.55 40 25.56 40 21C40 15.75 38.14 11.27 34.43 7.56C30.72 3.85 26.24 2 21 2C15.75 2 11.27 3.85 7.56 7.56C3.85 11.27 2 15.75 2 21C2 26.24 3.85 30.72 7.56 34.43C11.27 38.14 15.75 39.99 21 39.99C25.56 39.99 29.55 38.59 32.95 35.78L40.29 43.12L43.12 40.29L35.78 32.95M31.6 10.39C34.53 13.32 36 16.85 36 21C36 25.14 34.53 28.67 31.6 31.6C28.67 34.53 25.14 35.99 21 35.99C16.85 35.99 13.32 34.53 10.39 31.6C7.46 28.67 6 25.14 6 21C6 16.85 7.46 13.32 10.39 10.39C13.32 7.46 16.85 6 21 6C25.14 6 28.67 7.46 31.6 10.39L31.6 10.39Z" fill="#595959" fill-opacity="1.000000" fill-rule="evenodd"/>
		<path id="矢量 71 (边框)" d="M35.78 32.95C38.59 29.55 40 25.56 40 21C40 15.75 38.14 11.27 34.43 7.56C30.72 3.85 26.24 2 21 2C15.75 2 11.27 3.85 7.56 7.56C3.85 11.27 2 15.75 2 21C2 26.24 3.85 30.72 7.56 34.43C11.27 38.14 15.75 39.99 21 39.99C25.56 39.99 29.55 38.59 32.95 35.78L40.29 43.12L43.12 40.29L35.78 32.95M33.72 8.27C37.24 11.78 38.99 16.02 38.99 21C38.99 25.32 37.67 29.09 35.01 32.31L34.43 33.01L41.7 40.29L40.29 41.7L33.01 34.43L32.31 35.01C29.09 37.67 25.32 38.99 21 38.99C16.02 38.99 11.78 37.24 8.27 33.72C4.75 30.21 3 25.97 3 21C3 16.02 4.75 11.78 8.27 8.27C11.78 4.75 16.02 3 21 3C25.97 3 30.21 4.75 33.72 8.27M32.31 32.31C35.43 29.18 37 25.41 37 21C37 16.58 35.43 12.81 32.31 9.68C29.18 6.56 25.41 4.99 21 4.99C16.58 4.99 12.81 6.56 9.68 9.68C6.56 12.81 4.99 16.58 4.99 21C4.99 25.41 6.56 29.18 9.68 32.31C12.81 35.43 16.58 37 21 37C25.41 37 29.18 35.43 32.31 32.31M31.6 10.39C34.53 13.32 36 16.85 36 21C36 25.14 34.53 28.67 31.6 31.6C28.67 34.53 25.14 35.99 21 35.99C16.85 35.99 13.32 34.53 10.39 31.6C7.46 28.67 6 25.14 6 21C6 16.85 7.46 13.32 10.39 10.39C13.32 7.46 16.85 6 21 6C25.14 6 28.67 7.46 31.6 10.39L31.6 10.39Z" fill="#595959" fill-opacity="1.000000" fill-rule="evenodd"/>
	</g>
</svg>
