<svg width="48.000000" height="48.000000" viewBox="0 0 48 48" fill="none" xmlns="http://www.w3.org/2000/svg" xmlns:xlink="http://www.w3.org/1999/xlink">
	<desc>
			Created with Pixso.
	</desc>
	<defs>
		<clipPath id="clip248_15873">
			<rect id="delete_删除" width="48.000000" height="48.000000" fill="white" fill-opacity="0"/>
		</clipPath>
	</defs>
	<g clip-path="url(#clip248_15873)">
		<path id="path (边框)" d="M14 9L5 9L5 13L8.5 13L8.5 40C8.5 40.88 8.77 41.6 9.33 42.16C9.89 42.72 10.61 43 11.5 43L36.5 43C37.38 43 38.1 42.72 38.66 42.16C39.22 41.6 39.5 40.88 39.5 40L39.5 13L43 13L43 9L34 9L34 5L14 5L14 9M35.5 13L12.5 13L12.5 39L35.5 39L35.5 13M22 33L22 18L18 18L18 33L22 33M30 33L30 18L26 18L26 33L30 33Z" fill="#595959" fill-opacity="1.000000" fill-rule="evenodd"/>
		<path id="path (边框)" d="M38.66 42.16C39.22 41.6 39.5 40.88 39.5 40L39.5 13L43 13L43 9L34 9L34 5L14 5L14 9L5 9L5 13L8.5 13L8.5 40C8.5 40.88 8.77 41.6 9.33 42.16C9.89 42.72 10.61 43 11.5 43L36.5 43C37.38 43 38.1 42.72 38.66 42.16M6 10L6 11.99L9.5 11.99L9.5 40C9.5 40.6 9.68 41.09 10.04 41.45C10.4 41.81 10.89 41.99 11.5 41.99L36.5 41.99C37.1 41.99 37.59 41.81 37.95 41.45C38.31 41.09 38.49 40.6 38.49 40L38.49 11.99L41.99 11.99L41.99 10L32.99 10L32.99 6L15 6L15 10L6 10M12.5 12.5L12.5 11.99L36.5 11.99L36.5 40L11.49 40L11.49 13L12.5 13L12.5 39L35.5 39L35.5 13L12.5 13L12.5 12.5M22 33L22 18L18 18L18 33L22 33M30 33L30 18L26 18L26 33L30 33M19 19L20.99 19L20.99 31.99L19 31.99L19 19M28.99 19L28.99 31.99L27 31.99L27 19L28.99 19Z" fill="#595959" fill-opacity="1.000000" fill-rule="evenodd"/>
	</g>
</svg>
