<svg width="48.000000" height="48.000000" viewBox="0 0 48 48" fill="none" xmlns="http://www.w3.org/2000/svg" xmlns:xlink="http://www.w3.org/1999/xlink">
	<desc>
			Created with Pixso.
	</desc>
	<defs>
		<clipPath id="clip248_15708">
			<rect id="volume-notice_声音大" width="47.999992" height="48.000000" fill="white" fill-opacity="0"/>
		</clipPath>
	</defs>
	<g clip-path="url(#clip248_15708)">
		<path id="矢量 60 (边框)" d="M26 45.49L26 2.5L13.23 13.99L4 13.99L4 33.99L13.23 33.99L26 45.49M22 11.49L22 36.5L14.76 29.99L8 29.99L8 17.99L14.76 17.99L22 11.49M44 24C44 18.47 42.04 13.76 38.14 9.85L35.31 12.68C38.43 15.81 40 19.58 40 24C40 28.41 38.43 32.18 35.31 35.31L38.14 38.14C42.04 34.23 44 29.52 44 24L44 24M35.99 23.99C35.99 20.68 34.82 17.85 32.48 15.51L29.65 18.34C31.21 19.9 31.99 21.79 31.99 23.99C31.99 26.2 31.21 28.09 29.65 29.65L32.48 32.48C34.82 30.14 35.99 27.31 35.99 23.99L35.99 23.99Z" fill="#595959" fill-opacity="1.000000" fill-rule="evenodd"/>
		<path id="矢量 60 (边框)" d="M13.23 33.99L26 45.49L26 2.5L13.23 13.99L4 13.99L4 33.99L13.23 33.99M24.99 4.75L13.61 15L5 15L5 32.99L13.61 32.99L24.99 43.24L24.99 4.75M14.38 31L21.33 37.25L21.66 36.88L22 36.5L23 36.5L23 9.24L14.38 16.99L6.99 16.99L6.99 31L14.38 31M14.76 17.99L22 11.49L22 36.5L14.76 29.99L8 29.99L8 17.99L14.76 17.99M44 24C44 18.47 42.04 13.76 38.14 9.85L35.31 12.68C38.43 15.81 40 19.58 40 24C40 28.41 38.43 32.18 35.31 35.31L38.14 38.14C42.04 34.23 44 29.52 44 24M36.71 12.7L38.12 11.28C41.37 14.85 43 19.09 43 24C43 28.91 41.37 33.14 38.12 36.71L36.71 35.29C39.57 32.12 41 28.35 41 24C41 19.64 39.57 15.87 36.71 12.7M35.99 23.99C35.99 20.68 34.82 17.85 32.48 15.51L29.65 18.34C31.21 19.9 31.99 21.79 31.99 23.99C31.99 26.2 31.21 28.09 29.65 29.65L32.48 32.48C34.82 30.14 35.99 27.31 35.99 23.99M32.45 16.95L31.03 18.37C32.34 19.98 33 21.85 33 23.99C33 26.14 32.34 28.01 31.03 29.62L32.45 31.04C34.15 29.04 34.99 26.69 34.99 23.99C34.99 21.3 34.15 18.95 32.45 16.95L32.45 16.95Z" fill="#595959" fill-opacity="1.000000" fill-rule="evenodd"/>
	</g>
</svg>
