<svg width="48.000000" height="48.000053" viewBox="0 0 48 48.0001" fill="none" xmlns="http://www.w3.org/2000/svg" xmlns:xlink="http://www.w3.org/1999/xlink">
	<desc>
			Created with Pixso.
	</desc>
	<defs>
		<clipPath id="clip248_15602">
			<rect id="local_位置" width="48.000000" height="48.000053" fill="white" fill-opacity="0"/>
		</clipPath>
	</defs>
	<g clip-path="url(#clip248_15602)">
		<path id="矢量 43 (边框)" d="M20.21 42.05C21.17 43.04 21.98 43.84 22.63 44.45L24 45.74L25.36 44.45C26.01 43.84 26.82 43.04 27.78 42.05C29.69 40.07 31.45 38.11 33.04 36.15C38.34 29.67 41 24.42 41 20.4C41 18.05 40.55 15.79 39.67 13.64C38.81 11.56 37.6 9.72 36.03 8.11C34.47 6.5 32.67 5.26 30.63 4.37C28.52 3.45 26.31 3 24 3C21.68 3 19.47 3.45 17.36 4.37C15.32 5.26 13.52 6.5 11.96 8.11C10.39 9.72 9.18 11.56 8.32 13.64C7.44 15.79 7 18.05 7 20.4C7 24.42 9.65 29.67 14.95 36.15C16.54 38.11 18.3 40.07 20.21 42.05L20.21 42.05M24 40.2C24.28 39.91 24.58 39.6 24.9 39.27C26.74 37.37 28.42 35.49 29.95 33.62C32.06 31.04 33.71 28.68 34.91 26.54C35.59 25.32 36.11 24.2 36.46 23.17C36.82 22.12 37 21.2 37 20.4C37 18.57 36.65 16.83 35.97 15.17C35.31 13.56 34.37 12.14 33.17 10.9C31.97 9.67 30.59 8.71 29.04 8.04C27.43 7.34 25.75 7 24 7C22.24 7 20.56 7.34 18.95 8.04C17.4 8.71 16.02 9.67 14.82 10.9C13.62 12.14 12.68 13.56 12.02 15.17C11.34 16.83 11 18.57 11 20.4C11 21.2 11.17 22.12 11.53 23.17C11.88 24.2 12.4 25.32 13.08 26.54C14.28 28.68 15.93 31.04 18.04 33.62C19.57 35.49 21.25 37.37 23.09 39.27C23.41 39.6 23.71 39.91 24 40.2L24 40.2M26.72 12.55C25.85 12.18 24.94 12 23.99 12C23.05 12 22.14 12.18 21.27 12.55C20.43 12.9 19.69 13.4 19.04 14.05C18.4 14.69 17.9 15.43 17.55 16.27C17.18 17.14 16.99 18.05 16.99 19C16.99 19.94 17.18 20.85 17.55 21.72C17.9 22.56 18.4 23.3 19.04 23.94C19.69 24.59 20.43 25.09 21.27 25.44C22.14 25.81 23.05 26 23.99 26C24.94 26 25.85 25.81 26.72 25.44C27.56 25.09 28.3 24.59 28.94 23.94C29.59 23.3 30.09 22.56 30.44 21.72C30.81 20.85 31 19.94 31 19C31 18.05 30.81 17.14 30.44 16.27C30.09 15.43 29.59 14.69 28.94 14.05C28.3 13.4 27.56 12.9 26.72 12.55L26.72 12.55M22.83 16.23C23.2 16.07 23.59 16 23.99 16C24.4 16 24.79 16.07 25.16 16.23C25.52 16.38 25.84 16.6 26.12 16.87C26.39 17.15 26.61 17.47 26.76 17.83C26.92 18.2 27 18.59 27 19C27 19.4 26.92 19.79 26.76 20.16C26.61 20.52 26.39 20.84 26.12 21.12C25.84 21.39 25.52 21.61 25.16 21.76C24.79 21.92 24.4 22 23.99 22C23.59 22 23.2 21.92 22.83 21.76C22.47 21.61 22.15 21.39 21.87 21.12C21.6 20.84 21.38 20.52 21.23 20.16C21.07 19.79 20.99 19.4 20.99 19C20.99 18.59 21.07 18.2 21.23 17.83C21.38 17.47 21.6 17.15 21.87 16.87C22.15 16.6 22.47 16.38 22.83 16.23L22.83 16.23Z" fill="#595959" fill-opacity="1.000000" fill-rule="evenodd"/>
		<path id="矢量 43 (边框)" d="M24 45.74L22.63 44.45C21.98 43.84 21.17 43.04 20.21 42.05C18.3 40.07 16.54 38.11 14.95 36.15C9.65 29.67 7 24.42 7 20.4C7 18.05 7.44 15.79 8.32 13.64C9.18 11.56 10.39 9.72 11.96 8.11C13.52 6.5 15.32 5.26 17.36 4.37C19.47 3.45 21.68 3 24 3C26.31 3 28.52 3.45 30.63 4.37C32.67 5.26 34.47 6.5 36.03 8.11C37.6 9.72 38.81 11.56 39.67 13.64C40.55 15.79 41 18.05 41 20.4C41 24.42 38.34 29.67 33.04 36.15C31.45 38.11 29.69 40.07 27.78 42.05C26.82 43.04 26.01 43.84 25.36 44.45L24 45.74M24 44.37L23.31 43.72C22.67 43.13 21.88 42.34 20.93 41.36C19.04 39.4 17.3 37.45 15.72 35.52C10.57 29.22 8 24.18 8 20.4C8 18.18 8.41 16.05 9.25 14.02C10.06 12.06 11.2 10.32 12.67 8.81C14.15 7.29 15.84 6.12 17.76 5.29C19.74 4.43 21.82 4 24 4C26.17 4 28.25 4.43 30.23 5.29C32.15 6.12 33.84 7.29 35.32 8.81C36.79 10.32 37.93 12.06 38.74 14.02C39.58 16.05 39.99 18.18 39.99 20.4C39.99 24.18 37.42 29.22 32.27 35.52C30.69 37.45 28.95 39.4 27.06 41.36C26.11 42.34 25.32 43.13 24.68 43.72L24 44.37M25.26 39.62L25.62 39.97L24 41.63L22.37 39.97C20.51 38.05 18.81 36.14 17.27 34.26C15.12 31.63 13.43 29.22 12.21 27.03C11.5 25.76 10.96 24.58 10.59 23.49C10.19 22.34 9.99 21.31 9.99 20.4C9.99 18.44 10.36 16.57 11.1 14.78C11.81 13.06 12.81 11.53 14.1 10.2C15.4 8.88 16.88 7.85 18.55 7.12C20.29 6.37 22.1 5.99 24 5.99C25.89 5.99 27.7 6.37 29.44 7.12C31.11 7.85 32.59 8.88 33.89 10.2C35.18 11.53 36.18 13.06 36.89 14.78C37.63 16.57 38 18.44 38 20.4C38 21.31 37.8 22.34 37.4 23.49C37.03 24.58 36.49 25.76 35.78 27.03C34.56 29.22 32.87 31.63 30.72 34.26C29.18 36.14 27.48 38.05 25.62 39.97L25.26 39.62L24.9 39.27C26.74 37.37 28.42 35.49 29.95 33.62C32.06 31.04 33.71 28.68 34.91 26.54C35.59 25.32 36.11 24.2 36.46 23.17C36.82 22.12 37 21.2 37 20.4C37 18.57 36.65 16.83 35.97 15.17C35.31 13.56 34.37 12.14 33.17 10.9C31.97 9.67 30.59 8.71 29.04 8.04C27.43 7.34 25.75 7 24 7C22.24 7 20.56 7.34 18.95 8.04C17.4 8.71 16.02 9.67 14.82 10.9C13.62 12.14 12.68 13.56 12.02 15.17C11.34 16.83 11 18.57 11 20.4C11 21.2 11.17 22.12 11.53 23.17C11.88 24.2 12.4 25.32 13.08 26.54C14.28 28.68 15.93 31.04 18.04 33.62C19.57 35.49 21.25 37.37 23.09 39.27C23.41 39.6 23.71 39.91 24 40.2C24.28 39.91 24.58 39.6 24.9 39.27L25.26 39.62M26.72 12.55C25.85 12.18 24.94 12 23.99 12C23.05 12 22.14 12.18 21.27 12.55C20.43 12.9 19.69 13.4 19.04 14.05C18.4 14.69 17.9 15.43 17.55 16.27C17.18 17.14 16.99 18.05 16.99 19C16.99 19.94 17.18 20.85 17.55 21.72C17.9 22.56 18.4 23.3 19.04 23.94C19.69 24.59 20.43 25.09 21.27 25.44C22.14 25.81 23.05 26 23.99 26C24.94 26 25.85 25.81 26.72 25.44C27.56 25.09 28.3 24.59 28.94 23.94C29.59 23.3 30.09 22.56 30.44 21.72C30.81 20.85 31 19.94 31 19C31 18.05 30.81 17.14 30.44 16.27C30.09 15.43 29.59 14.69 28.94 14.05C28.3 13.4 27.56 12.9 26.72 12.55L26.72 12.55M21.66 13.47C22.4 13.15 23.18 13 23.99 13C24.81 13 25.59 13.15 26.33 13.47C27.05 13.77 27.68 14.2 28.24 14.75C28.79 15.31 29.22 15.94 29.52 16.66C29.84 17.4 29.99 18.18 29.99 19C29.99 19.81 29.84 20.59 29.52 21.33C29.22 22.05 28.79 22.68 28.24 23.24C27.68 23.79 27.05 24.22 26.33 24.52C25.59 24.84 24.81 24.99 23.99 24.99C23.18 24.99 22.4 24.84 21.66 24.52C20.94 24.22 20.31 23.79 19.75 23.24C19.2 22.68 18.77 22.05 18.47 21.33C18.15 20.59 18 19.81 18 19C18 18.18 18.15 17.4 18.47 16.66C18.77 15.94 19.2 15.31 19.75 14.75C20.31 14.2 20.94 13.77 21.66 13.47M25.55 15.31C25.06 15.1 24.54 14.99 23.99 14.99C23.45 14.99 22.93 15.1 22.44 15.31C21.96 15.51 21.54 15.8 21.17 16.17C20.8 16.54 20.51 16.96 20.31 17.44C20.1 17.93 19.99 18.45 19.99 19C19.99 19.54 20.1 20.06 20.31 20.55C20.51 21.03 20.8 21.45 21.17 21.82C21.54 22.19 21.96 22.48 22.44 22.68C22.93 22.89 23.45 23 23.99 23C24.54 23 25.06 22.89 25.55 22.68C26.03 22.48 26.45 22.19 26.82 21.82C27.19 21.45 27.48 21.03 27.68 20.55C27.89 20.06 28 19.54 28 19C28 18.45 27.89 17.93 27.68 17.44C27.48 16.96 27.19 16.54 26.82 16.17C26.45 15.8 26.03 15.51 25.55 15.31M22.83 16.23C23.2 16.07 23.59 16 23.99 16C24.4 16 24.79 16.07 25.16 16.23C25.52 16.38 25.84 16.6 26.12 16.87C26.39 17.15 26.61 17.47 26.76 17.83C26.92 18.2 27 18.59 27 19C27 19.4 26.92 19.79 26.76 20.16C26.61 20.52 26.39 20.84 26.12 21.12C25.84 21.39 25.52 21.61 25.16 21.76C24.79 21.92 24.4 22 23.99 22C23.59 22 23.2 21.92 22.83 21.76C22.47 21.61 22.15 21.39 21.87 21.12C21.6 20.84 21.38 20.52 21.23 20.16C21.07 19.79 20.99 19.4 20.99 19C20.99 18.59 21.07 18.2 21.23 17.83C21.38 17.47 21.6 17.15 21.87 16.87C22.15 16.6 22.47 16.38 22.83 16.23L22.83 16.23Z" fill="#595959" fill-opacity="1.000000" fill-rule="evenodd"/>
	</g>
</svg>
