<svg width="48.000000" height="48.000053" viewBox="0 0 48 48.0001" fill="none" xmlns="http://www.w3.org/2000/svg" xmlns:xlink="http://www.w3.org/1999/xlink">
	<desc>
			Created with Pixso.
	</desc>
	<defs>
		<clipPath id="clip248_15594">
			<rect id="menu_更多" width="48.000000" height="48.000053" fill="white" fill-opacity="0"/>
		</clipPath>
	</defs>
	<g clip-path="url(#clip248_15594)">
		<path id="矢量 42 (边框)" d="M43 8L5 8L5 12L43 12L43 8M43 22L5 22L5 26L43 26L43 22M43 36L5 36L5 40L43 40L43 36Z" fill="#595959" fill-opacity="1.000000" fill-rule="evenodd"/>
		<path id="矢量 42 (边框)" d="M43 8L5 8L5 12L43 12L43 8M6 10.99L6 9L41.99 9L41.99 10.99L6 10.99M43 22L5 22L5 26L43 26L43 22M6 24.99L6 23L41.99 23L41.99 24.99L6 24.99M43 36L5 36L5 40L43 40L43 36M6 37L6 38.99L41.99 38.99L41.99 37L6 37Z" fill="#595959" fill-opacity="1.000000" fill-rule="evenodd"/>
	</g>
</svg>
