<svg width="48.000000" height="48.000053" viewBox="0 0 48 48.0001" fill="none" xmlns="http://www.w3.org/2000/svg" xmlns:xlink="http://www.w3.org/1999/xlink">
	<desc>
			Created with Pixso.
	</desc>
	<defs>
		<clipPath id="clip248_15582">
			<rect id="user_用户" width="48.000000" height="48.000053" fill="white" fill-opacity="0"/>
		</clipPath>
	</defs>
	<g clip-path="url(#clip248_15582)">
		<path id="矢量 39" d="M24 5C25.35 5 26.65 5.26 27.89 5.78C29.08 6.29 30.14 7 31.07 7.92C31.99 8.85 32.7 9.91 33.21 11.1Q33.57 11.95 33.76 12.84Q34 13.89 34 15C34 16.35 33.73 17.65 33.21 18.89C32.7 20.08 31.99 21.14 31.07 22.07C30.14 22.99 29.08 23.7 27.89 24.21C26.65 24.73 25.35 25 24 25C22.64 25 21.34 24.73 20.1 24.21C18.91 23.7 17.85 22.99 16.92 22.07C16 21.14 15.29 20.08 14.78 18.89C14.26 17.65 14 16.35 14 15Q14 13.89 14.23 12.84Q14.42 11.95 14.78 11.1C15.29 9.91 16 8.85 16.92 7.92C17.85 7 18.91 6.29 20.1 5.78C21.34 5.26 22.64 5 24 5ZM24 9C23.18 9 22.4 9.15 21.66 9.47C20.94 9.77 20.31 10.2 19.75 10.75C19.2 11.31 18.77 11.94 18.47 12.66C18.15 13.4 18 14.18 18 15C18 15.81 18.15 16.59 18.47 17.33C18.77 18.05 19.2 18.68 19.75 19.24C20.31 19.79 20.94 20.22 21.66 20.52C22.4 20.84 23.18 21 24 21C24.81 21 25.59 20.84 26.33 20.52C27.05 20.22 27.68 19.79 28.24 19.24C28.79 18.68 29.22 18.05 29.52 17.33C29.84 16.59 30 15.81 30 15C30 14.18 29.84 13.4 29.52 12.66C29.22 11.94 28.79 11.31 28.24 10.75C27.68 10.2 27.05 9.77 26.33 9.47C25.59 9.15 24.81 9 24 9ZM16 27L32 27C33.45 27 34.83 27.21 36.14 27.65C37.47 28.1 38.64 28.75 39.65 29.6C40.71 30.5 41.53 31.57 42.1 32.81C42.7 34.09 43 35.49 43 36.99L43 39.99C43 40.38 42.94 40.73 42.83 41.07C42.69 41.49 42.47 41.85 42.16 42.16C41.85 42.47 41.49 42.69 41.07 42.83C40.73 42.94 40.38 43 40 43L8 43C7.61 43 7.26 42.94 6.92 42.83Q6.52 42.69 6.18 42.45Q5.99 42.32 5.83 42.16C5.53 41.85 5.3 41.49 5.16 41.07C5.05 40.73 5 40.38 5 40L5 36.99C5 35.49 5.29 34.09 5.89 32.81C6.46 31.57 7.28 30.5 8.34 29.6C9.35 28.75 10.52 28.1 11.86 27.65C13.16 27.21 14.54 27 16 27ZM16 31C14.97 31 14.02 31.14 13.13 31.44C12.28 31.73 11.54 32.13 10.92 32.66C10.31 33.18 9.84 33.79 9.52 34.49C9.17 35.24 9 36.08 9 36.99L9 39L39 39L39 36.99C39 36.08 38.82 35.24 38.47 34.49C38.15 33.79 37.68 33.18 37.07 32.66C36.45 32.13 35.71 31.73 34.86 31.44C33.97 31.14 33.02 31 32 31L16 31Z" fill="#595959" fill-opacity="1.000000" fill-rule="evenodd"/>
		<path id="矢量 39" d="M24 5C25.35 5 26.65 5.26 27.89 5.78C29.08 6.29 30.14 7 31.07 7.92C31.99 8.85 32.7 9.91 33.21 11.1C33.73 12.34 34 13.64 34 15C34 16.35 33.73 17.65 33.21 18.89C32.7 20.08 31.99 21.14 31.07 22.07C30.14 22.99 29.08 23.7 27.89 24.21C26.65 24.73 25.35 25 24 25C22.64 25 21.34 24.73 20.1 24.21C18.91 23.7 17.85 22.99 16.92 22.07C16 21.14 15.29 20.08 14.78 18.89C14.26 17.65 14 16.35 14 15C14 13.64 14.26 12.34 14.78 11.1C15.29 9.91 16 8.85 16.92 7.92C17.85 7 18.91 6.29 20.1 5.78C21.34 5.26 22.64 5 24 5L24 5M20.49 6.7C21.61 6.23 22.78 6 24 6C25.22 6 26.38 6.23 27.5 6.7C28.58 7.16 29.53 7.8 30.36 8.63C31.19 9.46 31.83 10.42 32.29 11.49C32.76 12.61 32.99 13.77 32.99 15C32.99 16.22 32.76 17.38 32.29 18.5C31.83 19.58 31.19 20.53 30.36 21.36C29.53 22.19 28.58 22.83 27.5 23.29C26.38 23.76 25.22 23.99 24 23.99C22.78 23.99 21.61 23.76 20.49 23.29C19.42 22.83 18.46 22.19 17.63 21.36C16.8 20.53 16.16 19.58 15.7 18.5C15.23 17.38 15 16.22 15 15C15 13.77 15.23 12.61 15.7 11.49C16.16 10.42 16.8 9.46 17.63 8.63C18.46 7.8 19.42 7.16 20.49 6.7M26.72 8.54C25.85 8.18 24.95 7.99 24 7.99C23.04 7.99 22.14 8.18 21.27 8.54C20.43 8.9 19.69 9.4 19.05 10.04C18.4 10.69 17.9 11.43 17.54 12.27C17.18 13.14 16.99 14.04 16.99 15C16.99 15.95 17.18 16.85 17.54 17.72C17.9 18.56 18.4 19.3 19.04 19.95C19.69 20.59 20.43 21.09 21.27 21.45C22.14 21.81 23.05 22 24 22C24.95 22 25.85 21.81 26.72 21.45C27.56 21.09 28.3 20.59 28.95 19.95C29.59 19.3 30.09 18.56 30.45 17.72C30.81 16.85 31 15.94 31 15C31 14.05 30.81 13.14 30.45 12.27C30.09 11.43 29.59 10.69 28.95 10.04C28.3 9.4 27.56 8.9 26.72 8.54M24 9C23.18 9 22.4 9.15 21.66 9.47C20.94 9.77 20.31 10.2 19.75 10.75C19.2 11.31 18.77 11.94 18.47 12.66C18.15 13.4 18 14.18 18 15C18 15.81 18.15 16.59 18.47 17.33C18.77 18.05 19.2 18.68 19.75 19.24C20.31 19.79 20.94 20.22 21.66 20.52C22.4 20.84 23.18 21 24 21C24.81 21 25.59 20.84 26.33 20.52C27.05 20.22 27.68 19.79 28.24 19.24C28.79 18.68 29.22 18.05 29.52 17.33C29.84 16.59 30 15.81 30 15C30 14.18 29.84 13.4 29.52 12.66C29.22 11.94 28.79 11.31 28.24 10.75C27.68 10.2 27.05 9.77 26.33 9.47C25.59 9.15 24.81 9 24 9L24 9M11.86 27.65C13.16 27.21 14.54 27 16 27L32 27C33.45 27 34.83 27.21 36.14 27.65C37.47 28.1 38.64 28.75 39.65 29.6C40.71 30.5 41.53 31.57 42.1 32.81C42.7 34.09 43 35.49 43 36.99L43 39.99C43 40.38 42.94 40.73 42.83 41.07C42.69 41.49 42.47 41.85 42.16 42.16C41.85 42.47 41.49 42.69 41.07 42.83C40.73 42.94 40.38 43 40 43L8 43C7.61 43 7.26 42.94 6.92 42.83C6.5 42.69 6.14 42.47 5.83 42.16C5.53 41.85 5.3 41.49 5.16 41.07C5.05 40.73 5 40.38 5 40L5 36.99C5 35.49 5.29 34.09 5.89 32.81C6.46 31.57 7.28 30.5 8.34 29.6C9.35 28.75 10.52 28.1 11.86 27.65L11.86 27.65M12.17 28.6C13.37 28.2 14.64 28 16 28L32 28C33.35 28 34.62 28.2 35.82 28.6C37.03 29.01 38.09 29.6 39 30.37C39.95 31.17 40.68 32.12 41.19 33.23C41.73 34.38 41.99 35.63 41.99 36.99L41.99 39.99C41.99 40.27 41.96 40.52 41.88 40.75C41.79 41.02 41.65 41.26 41.45 41.45C41.26 41.65 41.02 41.79 40.75 41.88C40.52 41.96 40.27 41.99 40 41.99L8 41.99C7.72 41.99 7.47 41.96 7.24 41.88C6.97 41.79 6.73 41.65 6.54 41.45C6.34 41.26 6.2 41.02 6.11 40.75C6.03 40.52 6 40.27 6 40L6 36.99C6 35.63 6.26 34.38 6.8 33.23C7.31 32.12 8.04 31.17 8.99 30.37C9.9 29.6 10.96 29.01 12.17 28.6M32 29.99L16 29.99C14.86 29.99 13.8 30.16 12.81 30.49C11.84 30.82 10.99 31.29 10.28 31.89C9.55 32.51 9 33.23 8.61 34.07C8.2 34.95 7.99 35.93 7.99 36.99L7.99 40L40 40L40 36.99C40 35.93 39.79 34.95 39.38 34.07C38.99 33.23 38.44 32.51 37.71 31.89C37 31.29 36.15 30.82 35.18 30.49C34.19 30.16 33.13 29.99 32 29.99M16 31C14.97 31 14.02 31.14 13.13 31.44C12.28 31.73 11.54 32.13 10.92 32.66C10.31 33.18 9.84 33.79 9.52 34.49C9.17 35.24 9 36.08 9 36.99L9 39L39 39L39 36.99C39 36.08 38.82 35.24 38.47 34.49C38.15 33.79 37.68 33.18 37.07 32.66C36.45 32.13 35.71 31.73 34.86 31.44C33.97 31.14 33.02 31 32 31L16 31Z" fill="#595959" fill-opacity="1.000000" fill-rule="evenodd"/>
	</g>
</svg>
