<svg width="48.000000" height="48.000053" viewBox="0 0 48 48.0001" fill="none" xmlns="http://www.w3.org/2000/svg" xmlns:xlink="http://www.w3.org/1999/xlink">
	<desc>
			Created with Pixso.
	</desc>
	<defs>
		<clipPath id="clip248_15584">
			<rect id="me_我的" width="48.000000" height="48.000053" fill="white" fill-opacity="0"/>
		</clipPath>
	</defs>
	<g clip-path="url(#clip248_15584)">
		<path id="矢量 40" d="M39.55 39.55C43.85 35.26 46 30.07 46 24C46 17.92 43.85 12.73 39.55 8.44C35.26 4.14 30.07 2 24 2C17.92 2 12.73 4.14 8.44 8.44C4.14 12.73 2 17.92 2 24C2 30.07 4.14 35.26 8.44 39.55C12.73 43.85 17.92 46 24 46C30.07 46 35.26 43.85 39.55 39.55ZM36.72 11.27C40.24 14.78 42 19.02 42 24C42 27.49 41.13 30.62 39.39 33.39C39.21 32.92 38.97 32.45 38.7 32C38.01 30.88 37.1 29.9 35.96 29.06C34.86 28.24 33.61 27.61 32.22 27.17C30.81 26.72 29.33 26.5 27.8 26.5L19.65 26.5C18.11 26.5 16.64 26.72 15.22 27.17C13.83 27.62 12.58 28.25 11.47 29.07C10.34 29.91 9.43 30.89 8.74 32.02C8.57 32.3 8.42 32.58 8.28 32.87C6.76 30.23 6 27.27 6 24C6 19.02 7.75 14.78 11.27 11.27C14.78 7.75 19.02 6 24 6C28.97 6 33.21 7.75 36.72 11.27ZM11.41 36.86L11.47 36.16C11.53 35.44 11.76 34.76 12.16 34.1C12.57 33.42 13.14 32.81 13.86 32.28Q14.98 31.45 16.43 30.98C17.46 30.66 18.53 30.5 19.65 30.5L27.8 30.5C28.92 30.5 29.99 30.66 31.01 30.98C31.98 31.29 32.83 31.72 33.59 32.28C34.3 32.81 34.87 33.41 35.28 34.09C35.69 34.75 35.92 35.43 35.98 36.15L36.08 37.34C32.7 40.44 28.67 42 24 42C19.09 42 14.89 40.28 11.41 36.86ZM30.44 20.72C30.81 19.85 31 18.94 31 18C31 17.05 30.81 16.14 30.44 15.27C30.09 14.43 29.59 13.69 28.95 13.05C28.3 12.4 27.56 11.9 26.72 11.55C25.85 11.18 24.94 11 24 11C23.05 11 22.14 11.18 21.27 11.55C20.43 11.9 19.69 12.4 19.05 13.05C18.4 13.69 17.9 14.43 17.55 15.27C17.18 16.14 17 17.05 17 18C17 18.94 17.18 19.85 17.55 20.72C17.9 21.56 18.4 22.3 19.05 22.94C19.69 23.59 20.43 24.09 21.27 24.44C22.14 24.81 23.05 25 24 25C24.94 25 25.85 24.81 26.72 24.44C27.56 24.09 28.3 23.59 28.95 22.94C29.59 22.3 30.09 21.56 30.44 20.72ZM26.76 16.83C26.92 17.2 27 17.59 27 18C27 18.4 26.92 18.79 26.76 19.16C26.61 19.52 26.39 19.84 26.12 20.12C25.84 20.39 25.52 20.61 25.16 20.76C24.79 20.92 24.4 21 24 21C23.59 21 23.2 20.92 22.83 20.76C22.47 20.61 22.15 20.39 21.87 20.12C21.6 19.84 21.38 19.52 21.23 19.16C21.07 18.79 21 18.4 21 18C21 17.59 21.07 17.2 21.23 16.83C21.38 16.47 21.6 16.15 21.87 15.87C22.15 15.6 22.47 15.38 22.83 15.23C23.2 15.07 23.59 15 24 15C24.4 15 24.79 15.07 25.16 15.23C25.52 15.38 25.84 15.6 26.12 15.87C26.39 16.15 26.61 16.47 26.76 16.83Z" fill="#595959" fill-opacity="1.000000" fill-rule="evenodd"/>
		<path id="矢量 40" d="M39.55 39.55C43.85 35.26 46 30.07 46 24C46 17.92 43.85 12.73 39.55 8.44C35.26 4.14 30.07 2 24 2C17.92 2 12.73 4.14 8.44 8.44C4.14 12.73 2 17.92 2 24C2 30.07 4.14 35.26 8.44 39.55C12.73 43.85 17.92 46 24 46C30.07 46 35.26 43.85 39.55 39.55L39.55 39.55M38.84 9.15C42.94 13.25 44.99 18.2 44.99 24C44.99 28.66 43.67 32.77 41.02 36.34L40.96 35.72L40.96 35.69C40.89 34.94 40.74 34.21 40.5 33.5C42.16 30.68 43 27.51 43 24C43 18.75 41.14 14.27 37.43 10.56C33.72 6.85 29.24 4.99 24 4.99C18.75 4.99 14.27 6.85 10.56 10.56C6.85 14.27 4.99 18.75 4.99 24C4.99 27.27 5.72 30.25 7.16 32.92C6.8 33.8 6.58 34.71 6.49 35.66C4.16 32.25 3 28.37 3 24C3 18.2 5.05 13.25 9.15 9.15C13.25 5.05 18.2 3 24 3C29.79 3 34.74 5.05 38.84 9.15M36.72 11.27C40.24 14.78 42 19.02 42 24C42 27.49 41.13 30.62 39.39 33.39C39.21 32.92 38.97 32.45 38.7 32C38.01 30.88 37.1 29.9 35.96 29.06C34.86 28.24 33.61 27.61 32.22 27.17C30.81 26.72 29.33 26.5 27.8 26.5L19.65 26.5C18.11 26.5 16.64 26.72 15.22 27.17C13.83 27.62 12.58 28.25 11.47 29.07C10.34 29.91 9.43 30.89 8.74 32.02C8.57 32.3 8.42 32.58 8.28 32.87C6.76 30.23 6 27.27 6 24C6 19.02 7.75 14.78 11.27 11.27C14.78 7.75 19.02 6 24 6C28.97 6 33.21 7.75 36.72 11.27L36.72 11.27M30.44 20.72C30.81 19.85 31 18.94 31 18C31 17.05 30.81 16.14 30.44 15.27C30.09 14.43 29.59 13.69 28.95 13.05C28.3 12.4 27.56 11.9 26.72 11.55C25.85 11.18 24.94 11 24 11C23.05 11 22.14 11.18 21.27 11.55C20.43 11.9 19.69 12.4 19.05 13.05C18.4 13.69 17.9 14.43 17.55 15.27C17.18 16.14 17 17.05 17 18C17 18.94 17.18 19.85 17.55 20.72C17.9 21.56 18.4 22.3 19.05 22.94C19.69 23.59 20.43 24.09 21.27 24.44C22.14 24.81 23.05 25 24 25C24.94 25 25.85 24.81 26.72 24.44C27.56 24.09 28.3 23.59 28.95 22.94C29.59 22.3 30.09 21.56 30.44 20.72L30.44 20.72M29.52 15.66C29.84 16.4 29.99 17.18 29.99 18C29.99 18.81 29.84 19.59 29.52 20.33C29.22 21.05 28.79 21.68 28.24 22.24C27.68 22.79 27.05 23.22 26.33 23.52C25.59 23.84 24.81 23.99 24 23.99C23.18 23.99 22.4 23.84 21.66 23.52C20.94 23.22 20.31 22.79 19.75 22.24C19.2 21.68 18.77 21.05 18.47 20.33C18.15 19.59 18 18.81 18 18C18 17.18 18.15 16.4 18.47 15.66C18.77 14.94 19.2 14.31 19.75 13.75C20.31 13.2 20.94 12.77 21.66 12.47C22.4 12.15 23.18 12 24 12C24.81 12 25.59 12.15 26.33 12.47C27.05 12.77 27.68 13.2 28.24 13.75C28.79 14.31 29.22 14.94 29.52 15.66M27.68 19.55C27.89 19.06 28 18.54 28 18C28 17.45 27.89 16.93 27.68 16.44C27.48 15.96 27.19 15.54 26.82 15.17C26.45 14.8 26.03 14.51 25.55 14.31C25.06 14.1 24.54 13.99 24 13.99C23.45 13.99 22.93 14.1 22.44 14.31C21.96 14.51 21.54 14.8 21.17 15.17C20.8 15.54 20.51 15.96 20.31 16.44C20.1 16.93 19.99 17.45 19.99 18C19.99 18.54 20.1 19.06 20.31 19.55C20.51 20.03 20.8 20.45 21.17 20.82C21.54 21.19 21.96 21.48 22.44 21.68C22.93 21.89 23.45 22 24 22C24.54 22 25.06 21.89 25.55 21.68C26.03 21.48 26.45 21.19 26.82 20.82C27.19 20.45 27.48 20.03 27.68 19.55M26.76 16.83C26.92 17.2 27 17.59 27 18C27 18.4 26.92 18.79 26.76 19.16C26.61 19.52 26.39 19.84 26.12 20.12C25.84 20.39 25.52 20.61 25.16 20.76C24.79 20.92 24.4 21 24 21C23.59 21 23.2 20.92 22.83 20.76C22.47 20.61 22.15 20.39 21.87 20.12C21.6 19.84 21.38 19.52 21.23 19.16C21.07 18.79 21 18.4 21 18C21 17.59 21.07 17.2 21.23 16.83C21.38 16.47 21.6 16.15 21.87 15.87C22.15 15.6 22.47 15.38 22.83 15.23C23.2 15.07 23.59 15 24 15C24.4 15 24.79 15.07 25.16 15.23C25.52 15.38 25.84 15.6 26.12 15.87C26.39 16.15 26.61 16.47 26.76 16.83L26.76 16.83M36.82 35.16C36.68 34.61 36.45 34.08 36.14 33.57C35.66 32.78 35 32.08 34.18 31.47C33.34 30.85 32.38 30.37 31.31 30.03C30.19 29.67 29.02 29.49 27.8 29.49L19.65 29.49C18.42 29.49 17.25 29.67 16.13 30.03C15.06 30.37 14.1 30.85 13.26 31.48C12.44 32.09 11.78 32.79 11.3 33.58C11.08 33.94 10.9 34.31 10.77 34.69C10.27 34.09 9.82 33.47 9.43 32.83C9.48 32.73 9.54 32.63 9.6 32.54L9.6 32.54C10.21 31.52 11.04 30.64 12.07 29.87C13.09 29.12 14.24 28.53 15.52 28.13C16.84 27.71 18.21 27.5 19.65 27.5L27.8 27.5C29.23 27.5 30.6 27.71 31.92 28.12C33.2 28.53 34.35 29.11 35.37 29.87C36.4 30.63 37.22 31.51 37.84 32.52C38 32.78 38.14 33.04 38.26 33.3C37.83 33.94 37.35 34.56 36.82 35.16M11.41 36.86L11.47 36.16C11.53 35.44 11.76 34.76 12.16 34.1C12.57 33.42 13.14 32.81 13.86 32.28C14.61 31.72 15.47 31.29 16.43 30.98C17.46 30.66 18.53 30.5 19.65 30.5L27.8 30.5C28.92 30.5 29.99 30.66 31.01 30.98C31.98 31.29 32.83 31.72 33.59 32.28C34.3 32.81 34.87 33.41 35.28 34.09C35.69 34.75 35.92 35.43 35.98 36.15L36.08 37.34C32.7 40.44 28.67 42 24 42C19.09 42 14.89 40.28 11.41 36.86L11.41 36.86M8.58 35.14C8.53 35.39 8.5 35.63 8.48 35.88L8.47 35.94L8.47 35.94L8.39 36.91L10.2 37.06C9.61 36.44 9.07 35.8 8.58 35.14M37.86 36.99L39.05 36.89L38.97 35.89L38.97 35.87C38.96 35.82 38.96 35.78 38.95 35.74C38.61 36.16 38.24 36.58 37.86 36.99M9.29 38.99C13.37 42.99 18.27 44.99 24 44.99C29.76 44.99 34.68 42.97 38.77 38.92L35.41 39.21C32.13 41.73 28.32 43 24 43C19.52 43 15.6 41.64 12.24 38.94L12.21 39.24L9.29 38.99Z" fill="#595959" fill-opacity="1.000000" fill-rule="evenodd"/>
	</g>
</svg>
