<svg width="48.000000" height="48.000000" viewBox="0 0 48 48" fill="none" xmlns="http://www.w3.org/2000/svg" xmlns:xlink="http://www.w3.org/1999/xlink">
	<desc>
			Created with Pixso.
	</desc>
	<defs>
		<clipPath id="clip248_15779">
			<rect id="remind_提醒" width="47.999992" height="48.000000" fill="white" fill-opacity="0"/>
		</clipPath>
	</defs>
	<g clip-path="url(#clip248_15779)">
		<path id="path (边框)" d="M26 7.11C29.29 7.52 32.16 8.94 34.6 11.39C37.53 14.32 39 17.85 39 22L39 33L42 33L42 37L6 37L6 33L9 33L9 22C9 17.85 10.46 14.32 13.39 11.39C15.83 8.94 18.7 7.52 22 7.11L22 4L26 4L26 7.11M13 33L35 33L35 22C35 18.96 33.92 16.36 31.77 14.22C29.63 12.07 27.03 11 24 11C20.96 11 18.36 12.07 16.22 14.22C14.07 16.36 13 18.96 13 22L13 33M31 44L31 40L17 40L17 44L31 44Z" fill="#595959" fill-opacity="1.000000" fill-rule="evenodd"/>
		<path id="path (边框)" d="M26 7.11C29.29 7.52 32.16 8.94 34.6 11.39C37.53 14.32 39 17.85 39 22L39 33L42 33L42 37L6 37L6 33L9 33L9 22C9 17.85 10.46 14.32 13.39 11.39C15.83 8.94 18.7 7.52 22 7.11L22 4L26 4L26 7.11M25.87 8.11C28.94 8.48 31.61 9.81 33.89 12.1C36.63 14.83 37.99 18.13 37.99 22L37.99 34L40.99 34L40.99 35.99L7 35.99L7 34L10 34L10 22C10 18.13 11.36 14.83 14.1 12.1C16.38 9.81 19.05 8.48 22.12 8.11L23 8L23 5L24.99 5L24.99 8L25.87 8.11M35 33.5L35 34L11.99 34L11.99 22C11.99 18.68 13.17 15.85 15.51 13.51C17.85 11.17 20.68 9.99 24 9.99C27.31 9.99 30.14 11.17 32.48 13.51C34.82 15.85 36 18.68 36 22L36 33L35 33L35 22C35 18.96 33.92 16.36 31.77 14.22C29.63 12.07 27.03 11 24 11C20.96 11 18.36 12.07 16.22 14.22C14.07 16.36 13 18.96 13 22L13 33L35 33L35 33.5M31 44L31 40L17 40L17 44L31 44M29.99 41L29.99 42.99L18 42.99L18 41L29.99 41Z" fill="#595959" fill-opacity="1.000000" fill-rule="evenodd"/>
	</g>
</svg>
