<svg width="48.000000" height="48.000053" viewBox="0 0 48 48.0001" fill="none" xmlns="http://www.w3.org/2000/svg" xmlns:xlink="http://www.w3.org/1999/xlink">
	<desc>
			Created with Pixso.
	</desc>
	<defs>
		<clipPath id="clip248_15588">
			<rect id="home_首页" width="48.000000" height="48.000053" fill="white" fill-opacity="0"/>
		</clipPath>
	</defs>
	<g clip-path="url(#clip248_15588)">
		<path id="矢量 42 (边框)" d="M43 15.85L25.01 5.27L24 4.67L5 15.85L5 43L43 43L43 15.85M29.99 39L39 39L39 18.14L24 9.32L9 18.14L9 39L17.99 39L17.99 26L29.99 26L29.99 39M21.99 39L25.99 39L25.99 30L21.99 30L21.99 39Z" fill="#595959" fill-opacity="1.000000" fill-rule="evenodd"/>
		<path id="矢量 42 (边框)" d="M43 15.85L25.01 5.27L24 4.67L5 15.85L5 43L43 43L43 15.85M24 5.84L24.5 6.13L41.99 16.42L41.99 41.99L6 41.99L6 16.42L24 5.84M39 39.5L39 40L28.99 40L28.99 27L19 27L19 40L7.99 40L7.99 17.57L24 8.15L40 17.57L40 39L39 39L39 18.14L24 9.32L9 18.14L9 39L17.99 39L17.99 26L29.99 26L29.99 39L39 39L39 39.5M20.99 40L27 40L27 28.99L20.99 28.99L20.99 40M21.99 39L25.99 39L25.99 30L21.99 30L21.99 39Z" fill="#595959" fill-opacity="1.000000" fill-rule="evenodd"/>
	</g>
</svg>
